<svg width="29" height="29" viewBox="0 0 29 29" fill="none" xmlns="http://www.w3.org/2000/svg">
<path d="M9.15963 23.3575C7.60999 23.3575 6.3421 24.627 6.3421 26.1787C6.3421 27.7304 7.60999 29 9.15963 29C10.7093 29 11.9772 27.7304 11.9772 26.1787C11.9772 24.627 10.7093 23.3575 9.15963 23.3575ZM0.707031 0.787354V3.60862H3.52456L8.59612 14.3294L6.62385 17.7149C6.48297 18.1381 6.3421 18.7024 6.3421 19.1256C6.3421 20.6773 7.60999 21.9468 9.15963 21.9468H26.0648V19.1256H9.72313C9.58226 19.1256 9.44138 18.9845 9.44138 18.8434V18.7023L10.7093 16.3042H21.1341C22.2612 16.3042 23.1064 15.74 23.529 14.8936L28.6006 5.72456C28.8824 5.44244 28.8824 5.30137 28.8824 5.01925C28.8824 4.17287 28.3188 3.60862 27.4736 3.60862H6.62385L5.35596 0.787354H0.707031ZM23.2473 23.3575C21.6976 23.3575 20.4298 24.627 20.4298 26.1787C20.4298 27.7304 21.6976 29 23.2473 29C24.7969 29 26.0648 27.7304 26.0648 26.1787C26.0648 24.627 24.7969 23.3575 23.2473 23.3575Z" fill="#323232"/>
</svg>
