<svg width="33" height="25" viewBox="0 0 33 25" fill="none" xmlns="http://www.w3.org/2000/svg">
<path d="M0.5 3.125C0.223858 3.125 -9.78516e-09 2.90114 -2.18557e-08 2.625L-1.14742e-07 0.5C-1.26813e-07 0.223858 0.223857 -9.78512e-09 0.5 -2.18557e-08L32.3125 -6.97168e-07C32.5886 -7.09238e-07 32.8125 0.223857 32.8125 0.499999L32.8125 2.625C32.8125 2.90114 32.5886 3.125 32.3125 3.125L0.5 3.125Z" fill="#323232"/>
<path d="M0.5 14.0625C0.223858 14.0625 -9.78516e-09 13.8386 -2.18557e-08 13.5625L-1.14742e-07 11.4375C-1.26813e-07 11.1614 0.223857 10.9375 0.5 10.9375L32.3125 10.9375C32.5886 10.9375 32.8125 11.1614 32.8125 11.4375L32.8125 13.5625C32.8125 13.8386 32.5886 14.0625 32.3125 14.0625L0.5 14.0625Z" fill="#323232"/>
<path d="M0.5 25C0.223858 25 -9.78516e-09 24.7761 -2.18557e-08 24.5L-1.14742e-07 22.375C-1.26813e-07 22.0989 0.223857 21.875 0.5 21.875L32.3125 21.875C32.5886 21.875 32.8125 22.0989 32.8125 22.375L32.8125 24.5C32.8125 24.7761 32.5886 25 32.3125 25L0.5 25Z" fill="#323232"/>
</svg>
