<svg width="20" height="16" viewBox="0 0 20 16" fill="none" xmlns="http://www.w3.org/2000/svg">
<path d="M0.5 1.9043C0.223857 1.9043 -9.78515e-09 1.68044 -2.18557e-08 1.4043L-6.14041e-08 0.499535C-7.34747e-08 0.223392 0.223858 -0.000465045 0.5 -0.000465057L19.5 -0.000465411C19.7761 -0.000465423 20 0.223392 20 0.499535L20 1.4043C20 1.68044 19.7761 1.9043 19.5 1.9043L0.5 1.9043Z" fill="#323232"/>
<path d="M0.5 8.57129C0.223857 8.57129 -9.78515e-09 8.34743 -2.18557e-08 8.07129L-6.14041e-08 7.16653C-7.34747e-08 6.89038 0.223858 6.66653 0.5 6.66653L19.5 6.66653C19.7761 6.66653 20 6.89038 20 7.16653L20 8.07129C20 8.34743 19.7761 8.57129 19.5 8.57129L0.5 8.57129Z" fill="#323232"/>
<path d="M0.5 15.2383C0.223857 15.2383 -9.78515e-09 15.0144 -2.18557e-08 14.7383L-6.14041e-08 13.8335C-7.34747e-08 13.5574 0.223858 13.3335 0.5 13.3335L19.5 13.3335C19.7761 13.3335 20 13.5574 20 13.8335L20 14.7383C20 15.0144 19.7761 15.2383 19.5 15.2383L0.5 15.2383Z" fill="#323232"/>
</svg>
