<svg width="20" height="20" viewBox="0 0 20 20" fill="none" xmlns="http://www.w3.org/2000/svg">
<circle cx="10" cy="10" r="10" fill="#FFAD05"/>
<path d="M9.35001 5C9.13334 5 9 5.13656 9 5.37553V6.65576C9 6.87767 9.13334 7 9.35001 7H10.65C10.8667 7 11 6.87767 11 6.65576V5.37553C11 5.13656 10.8667 5 10.65 5H9.35001ZM9.35001 8.64154C9.13334 8.64154 9 8.77809 9 9V14.6415C9 14.8634 9.13334 15 9.35001 15H10.65C10.8667 15 11 14.8634 11 14.6415V9C11 8.77809 10.8667 8.64154 10.65 8.64154H9.35001Z" fill="white"/>
</svg>
