<svg width="211" height="101" viewBox="0 0 211 101" fill="none" xmlns="http://www.w3.org/2000/svg">
<path d="M204.983 33.4165C203.05 31.9186 200.641 31.1286 198.011 31.1286C197.41 31.1286 196.795 31.1714 196.183 31.257L191.485 31.9088C190.317 32.0701 189.21 32.3762 188.19 32.8173C187.672 32.7548 187.143 32.7219 186.606 32.7219C185.972 32.7219 185.322 32.768 184.677 32.8569L180.016 33.5054C179.127 33.6305 178.26 33.8411 177.43 34.1407C177.141 34.121 176.853 34.1111 176.564 34.1111C175.967 34.1111 175.359 34.1539 174.758 34.2362L162.254 35.9776C161.076 36.1422 159.954 36.4549 158.911 36.9125C158.183 36.8302 157.383 36.7907 156.516 36.7907C154.407 36.7907 152.43 37.0343 151.679 37.1397C148.504 37.5808 145.723 38.4071 143.389 39.5987C143.033 39.5132 142.669 39.4407 142.308 39.3881L142.098 39.3551H142.083C141.261 39.2432 140.331 39.184 139.318 39.184C137.212 39.184 135.231 39.4276 134.48 39.5329C133.703 39.6415 132.942 39.7732 132.202 39.9312L127.448 28.2843L133.655 15.584L133.666 15.5643L133.673 15.5445L133.775 15.324L133.782 15.3042L133.79 15.2845C135.302 11.8279 134.724 8.15743 132.244 5.46791C130.228 3.28536 127.192 2.03771 123.916 2.03771C123.308 2.03771 122.693 2.08051 122.081 2.1661L115.026 3.1438C113.36 3.37424 111.829 3.84828 110.459 4.55275C109.599 4.3717 108.706 4.27952 107.794 4.27952C107.153 4.27952 106.5 4.32561 105.847 4.41449L98.9604 5.36915C97.5756 5.56009 96.2772 5.94195 95.0838 6.50158C94.3933 6.38966 93.684 6.3304 92.9673 6.3304C92.333 6.3304 91.6876 6.37649 91.0459 6.46208L84.1596 7.41674C80.8984 7.86774 78.1364 9.37874 76.3426 11.5745C74.4399 10.261 72.1132 9.56967 69.5801 9.56967C68.9384 9.56967 68.2854 9.61576 67.6324 9.70464L60.7461 10.6593C59.0499 10.893 57.4475 11.4296 56.0439 12.223C55.8225 12.1802 55.6011 12.1407 55.3835 12.1045C54.3627 11.9497 53.1618 11.8707 51.8071 11.8707C49.8819 11.8707 47.589 12.0353 45.51 12.325C32.3791 14.1455 25.0988 20.9038 24.457 31.8791C24.1943 36.3694 25.2226 40.2374 27.5118 43.4075C25.1813 45.1457 23.7628 47.6541 23.5977 50.4753L23.3162 55.3013L13.5028 56.6675C8.06501 57.4213 4.28975 61.1609 4.10211 65.9705L3.22772 88.3096C3.11513 91.2131 4.36105 93.8302 6.74029 95.6769C8.66921 97.1748 11.0822 97.9648 13.7129 97.9648C14.3171 97.9648 14.9288 97.922 15.5367 97.8365L28.2023 96.0753C29.0617 95.9568 29.8985 95.7527 30.7054 95.4696C30.9681 95.486 31.2195 95.4959 31.4672 95.4959C32.0676 95.4959 32.6831 95.4531 33.2948 95.3675L38.072 94.7025C39.2279 94.5412 40.3199 94.2417 41.3369 93.8104C41.8473 93.873 42.3652 93.9026 42.8868 93.9026C43.506 93.9026 44.1402 93.8598 44.7632 93.7709L49.6605 93.0895C50.5124 92.971 51.3493 92.7603 52.1598 92.4673C52.6064 92.4903 53.0643 92.5035 53.5334 92.5035C55.1808 92.5035 57.0609 92.3751 58.6859 92.148C61.6918 91.7299 64.3638 90.9596 66.6492 89.8568C67.5799 90.0872 68.5444 90.2024 69.5313 90.2024C70.1318 90.2024 70.7472 90.1596 71.3589 90.0741L76.1324 89.4091C79.1496 88.991 81.7128 87.6117 83.394 85.6003C85.1953 86.7788 87.3494 87.3977 89.6799 87.3977C90.284 87.3977 90.8995 87.3549 91.5037 87.2693L96.2847 86.6043C97.3055 86.4628 98.2812 86.2093 99.2006 85.8538C99.5796 85.8867 99.9586 85.9032 100.345 85.9032C101.009 85.9032 101.692 85.8538 102.372 85.7616L106.841 85.1394L107.036 85.1131C107.832 85.0012 108.624 84.8102 109.397 84.5436C109.626 84.5568 109.847 84.5634 110.065 84.5634C110.665 84.5634 111.281 84.5206 111.892 84.435L124.558 82.6738C125.586 82.5289 126.569 82.2755 127.493 81.9133C128.048 81.9528 128.641 81.9693 129.264 81.9693C130.911 81.9693 132.788 81.8409 134.416 81.6138C137.497 81.1858 140.229 80.3859 142.549 79.2403C142.789 79.2897 143.029 79.3325 143.269 79.372C144.166 79.5102 145.239 79.5794 146.463 79.5794C148.11 79.5794 149.987 79.451 151.612 79.2238C154.617 78.8057 157.289 78.0354 159.575 76.9326C160.506 77.1631 161.474 77.2783 162.457 77.2783C163.057 77.2783 163.673 77.2355 164.285 77.1499L176.943 75.3887C177.802 75.2702 178.646 75.0661 179.453 74.7797C179.716 74.7962 179.967 74.806 180.215 74.806C180.815 74.806 181.431 74.7632 182.043 74.6777L186.737 74.0258C187.904 73.8645 189.011 73.5584 190.036 73.1206C190.554 73.1831 191.079 73.216 191.612 73.216C192.25 73.216 192.903 73.1699 193.552 73.0778L198.206 72.4293C203.636 71.6754 207.415 67.9358 207.603 63.1262L208.477 40.7838C208.593 37.8804 207.344 35.2633 204.964 33.4165H204.983ZM202.69 34.595C202.912 34.7333 203.129 34.8814 203.339 35.0427C203.129 34.8814 202.912 34.7333 202.69 34.595ZM205.396 37.5643C205.212 37.1726 204.976 36.8039 204.713 36.4517C204.976 36.8039 205.212 37.1726 205.396 37.5643ZM202.476 34.4699C202.319 34.3777 202.157 34.2888 201.996 34.2098C202.161 34.2921 202.319 34.3777 202.476 34.4699ZM201.737 34.088C201.572 34.0123 201.407 33.9465 201.238 33.8806C201.407 33.9432 201.572 34.0123 201.737 34.088ZM200.986 33.7885C200.776 33.716 200.559 33.6535 200.341 33.5975C200.559 33.6535 200.776 33.716 200.986 33.7885ZM200.213 33.5613C199.951 33.4988 199.684 33.4494 199.414 33.4099C199.684 33.4494 199.951 33.4988 200.213 33.5613ZM199.174 33.3803C198.979 33.3572 198.78 33.3375 198.577 33.3243C198.776 33.3375 198.975 33.3539 199.174 33.3803ZM198.281 33.3144C198.086 33.3078 197.887 33.3111 197.688 33.3144C197.797 33.3111 197.905 33.3046 198.014 33.3046C198.104 33.3046 198.191 33.3111 198.281 33.3144ZM196.577 33.4066C196.866 33.3671 197.151 33.3408 197.433 33.3276C197.151 33.3441 196.866 33.3671 196.577 33.4066L195.012 33.6239L196.577 33.4066ZM187.694 34.9571C187.593 34.9472 187.492 34.9439 187.39 34.9374C187.492 34.9439 187.597 34.9472 187.694 34.9571ZM186.741 34.9044C186.565 34.9044 186.385 34.9044 186.204 34.9143C186.339 34.9077 186.478 34.9011 186.613 34.9011C186.655 34.9011 186.696 34.9077 186.741 34.9077V34.9044ZM185.934 34.9209C185.653 34.9374 185.368 34.9637 185.082 35.0032C185.371 34.9637 185.653 34.9374 185.934 34.9209ZM177.839 36.3661C177.629 36.3397 177.415 36.32 177.198 36.3035C177.412 36.3167 177.626 36.3364 177.839 36.3661ZM176.988 36.2969C176.841 36.2903 176.695 36.2838 176.549 36.2838C176.556 36.2838 176.567 36.2838 176.575 36.2838C176.714 36.2838 176.849 36.2903 176.988 36.2969ZM162.656 38.124L175.16 36.3825L162.656 38.124C162.352 38.1667 162.052 38.2227 161.763 38.2886C162.052 38.2227 162.352 38.1667 162.656 38.124ZM176.091 36.3035C176.012 36.3068 175.937 36.3068 175.858 36.3134C175.937 36.3068 176.012 36.3068 176.091 36.3035ZM159.361 39.184C159.271 39.1675 159.188 39.1477 159.095 39.1346C159.185 39.1477 159.271 39.1675 159.361 39.184ZM156.591 38.9667C156.569 38.9667 156.546 38.9667 156.52 38.9667C156.52 38.9667 156.528 38.9667 156.531 38.9667C156.55 38.9667 156.573 38.9667 156.591 38.9667ZM158.524 39.0622C158.464 39.0556 158.4 39.049 158.34 39.0457C158.4 39.0523 158.464 39.0556 158.524 39.0622ZM157.931 39.0128C157.86 39.0095 157.789 39.0029 157.721 38.9996C157.792 39.0029 157.864 39.0095 157.931 39.0128ZM157.308 38.9799C157.244 38.9799 157.181 38.9733 157.117 38.9733C157.181 38.9733 157.244 38.9766 157.308 38.9799ZM152.081 39.286C152.013 39.2959 151.949 39.3091 151.882 39.3189C151.949 39.3091 152.013 39.2959 152.081 39.286ZM155.871 38.9733C155.811 38.9733 155.755 38.9766 155.695 38.9799C155.755 38.9799 155.811 38.9766 155.871 38.9733ZM155.214 38.9963C155.162 38.9963 155.105 38.9996 155.053 39.0029C155.105 39.0029 155.162 38.9963 155.214 38.9963ZM154.464 39.0391C154.434 39.0391 154.404 39.0424 154.374 39.0457C154.404 39.0457 154.434 39.0424 154.464 39.0391ZM153.901 39.0819C153.852 39.0852 153.799 39.0918 153.751 39.0951C153.799 39.0918 153.848 39.0852 153.901 39.0819ZM153.334 39.1346C153.308 39.1346 153.278 39.1412 153.251 39.1412C153.278 39.1412 153.304 39.1346 153.334 39.1346ZM152.816 39.1905C152.782 39.1938 152.752 39.1971 152.719 39.2037C152.752 39.2004 152.782 39.1971 152.816 39.1905ZM152.437 39.2366C152.403 39.2399 152.37 39.2465 152.34 39.2498C152.37 39.2465 152.403 39.2432 152.437 39.2366ZM143.731 41.9788C143.348 41.8471 142.943 41.7418 142.522 41.6529C142.939 41.7418 143.344 41.8471 143.731 41.9788ZM139.389 41.3566C139.363 41.3566 139.34 41.3566 139.314 41.3566C139.314 41.3566 139.321 41.3566 139.325 41.3566C139.348 41.3566 139.366 41.3566 139.389 41.3566ZM141.318 41.4521C141.258 41.4455 141.194 41.4389 141.134 41.4356C141.198 41.4422 141.258 41.4455 141.318 41.4521ZM140.725 41.4027C140.653 41.3994 140.586 41.3929 140.515 41.3896C140.586 41.3929 140.653 41.3994 140.725 41.4027ZM140.106 41.3698C140.042 41.3698 139.978 41.3632 139.91 41.3632C139.974 41.3632 140.038 41.3665 140.106 41.3698ZM138.672 41.3632C138.612 41.3632 138.552 41.3665 138.488 41.3698C138.548 41.3698 138.608 41.3665 138.672 41.3632ZM138.012 41.3863C137.959 41.3863 137.903 41.3896 137.85 41.3928C137.903 41.3928 137.959 41.3863 138.012 41.3863ZM137.265 41.4291C137.231 41.4291 137.197 41.4356 137.167 41.4356C137.201 41.4356 137.231 41.4291 137.265 41.4291ZM136.702 41.4719C136.649 41.4752 136.597 41.4817 136.544 41.485C136.597 41.4817 136.646 41.4752 136.702 41.4719ZM136.131 41.5245C136.105 41.5245 136.075 41.5311 136.049 41.5311C136.075 41.5311 136.105 41.5245 136.131 41.5245ZM135.61 41.5805C135.576 41.5838 135.55 41.5871 135.516 41.5904C135.546 41.5871 135.576 41.5838 135.61 41.5805ZM135.227 41.6266C135.197 41.6299 135.171 41.6332 135.144 41.6365C135.171 41.6332 135.201 41.6299 135.227 41.6266ZM130.54 42.6175C130.502 42.443 130.465 42.2685 130.416 42.0973C130.465 42.2718 130.502 42.443 130.54 42.6175ZM131.384 14.7183L127.189 23.3004L131.384 14.7183L131.486 14.4977L131.384 14.7183ZM131.955 9.83961C132 10.0305 132.041 10.2248 132.071 10.4223C132.041 10.2248 132 10.0338 131.955 9.83961ZM130.975 7.64389C131.167 7.92699 131.339 8.21997 131.486 8.52283C131.339 8.21997 131.17 7.92699 130.975 7.64389C130.784 7.36078 130.566 7.08755 130.326 6.83078C130.566 7.09084 130.784 7.36407 130.975 7.64389ZM129.767 6.2909C129.733 6.26127 129.699 6.22835 129.665 6.19872C129.699 6.22835 129.733 6.25798 129.767 6.2909ZM124.817 4.2466C124.858 4.2499 124.899 4.25648 124.944 4.25977C124.903 4.25648 124.862 4.2499 124.817 4.2466ZM125.714 4.3717C125.736 4.37499 125.763 4.37828 125.785 4.38487C125.763 4.38157 125.736 4.37828 125.714 4.3717ZM126.562 4.57251C126.611 4.58567 126.659 4.60213 126.712 4.6153C126.663 4.59884 126.614 4.58567 126.562 4.57251ZM127.44 4.87207C127.481 4.88853 127.523 4.90828 127.56 4.92474C127.519 4.90828 127.478 4.88853 127.44 4.87207ZM128.254 5.25065C128.254 5.25065 128.277 5.26052 128.288 5.2671C128.277 5.26052 128.266 5.25723 128.254 5.25065ZM128.952 5.66872C128.994 5.69506 129.031 5.72139 129.072 5.74773C129.035 5.72139 128.994 5.69506 128.952 5.66872ZM124.006 4.21368C123.942 4.21368 123.875 4.21368 123.811 4.21368C123.849 4.21368 123.89 4.21039 123.927 4.21039C123.954 4.21039 123.98 4.21368 124.006 4.21368ZM114.167 5.52717C114.576 5.42841 114.996 5.3494 115.427 5.28686L122.486 4.30915L115.427 5.28686C114.996 5.34611 114.576 5.42512 114.167 5.52717C113.758 5.62593 113.363 5.74444 112.984 5.8827C113.367 5.74444 113.761 5.62922 114.167 5.52717ZM123.35 4.23014C123.282 4.23344 123.214 4.23673 123.147 4.24331C123.214 4.23673 123.282 4.23673 123.35 4.23014ZM112.422 6.09997C112.054 6.25469 111.701 6.42916 111.36 6.62009C111.697 6.42916 112.054 6.25469 112.422 6.09997ZM109.025 82.3281C108.616 82.4927 108.192 82.6343 107.753 82.7462C108.192 82.631 108.616 82.4927 109.025 82.3281ZM110.207 6.73531C110.144 6.71885 110.08 6.70568 110.012 6.69251C110.076 6.70568 110.14 6.72214 110.207 6.73531ZM109.502 6.59046C109.438 6.58059 109.378 6.56742 109.314 6.55755C109.378 6.56742 109.442 6.5773 109.502 6.59046ZM108.616 6.47854C108.586 6.47854 108.56 6.47854 108.53 6.47525C108.56 6.47525 108.586 6.47525 108.616 6.47854ZM107.899 6.4522C107.824 6.4522 107.749 6.4522 107.674 6.4522C107.716 6.4522 107.761 6.44891 107.802 6.44891C107.836 6.44891 107.866 6.44891 107.896 6.4522H107.899ZM106.958 6.48183C107.029 6.47525 107.1 6.47195 107.171 6.46866C107.1 6.47195 107.029 6.47525 106.958 6.48183ZM99.3582 7.50892L101.655 7.1896L99.3582 7.50892C98.9979 7.55829 98.6489 7.62413 98.3074 7.70643C98.6489 7.62413 99.0017 7.56159 99.3582 7.50892ZM98.8628 83.6186C98.8441 83.6186 98.8216 83.6153 98.8028 83.612C98.8216 83.612 98.8441 83.6153 98.8628 83.6186ZM95.5041 8.81252C95.6805 8.71047 95.8681 8.62159 96.052 8.52942C95.8681 8.62159 95.6805 8.71047 95.5041 8.81252C95.2227 8.7401 94.9337 8.68414 94.6447 8.63805C94.9375 8.68414 95.2227 8.7401 95.5041 8.81252ZM93.4401 8.51296C93.1849 8.50308 92.9222 8.50308 92.6595 8.51296C92.7646 8.51296 92.8735 8.50308 92.9785 8.50308C93.1324 8.50308 93.2863 8.50967 93.4401 8.51625V8.51296ZM94.4496 8.60513C94.1606 8.56234 93.8679 8.53271 93.5715 8.51625C93.8679 8.53271 94.1606 8.56563 94.4496 8.60513ZM92.3931 8.51954C92.0779 8.536 91.7626 8.56234 91.4436 8.60513C91.7626 8.56234 92.0779 8.536 92.3931 8.51954ZM78.3653 12.8484C77.9825 13.3192 77.656 13.8261 77.3933 14.3693C77.217 14.7314 77.0706 15.1067 76.9543 15.4952C77.0706 15.1067 77.217 14.7314 77.3933 14.3693C77.656 13.8261 77.9825 13.3192 78.3653 12.8484ZM76.7816 15.2351C76.3689 14.6327 75.8622 14.0796 75.2543 13.5957C75.0366 13.4245 74.8039 13.2665 74.5713 13.1151C74.8077 13.2632 75.0366 13.4212 75.2543 13.5957C75.866 14.0763 76.3726 14.6294 76.7816 15.2351ZM74.3424 12.9834C74.1772 12.8847 74.0046 12.7925 73.832 12.7036C74.0046 12.7892 74.1772 12.8847 74.3424 12.9834ZM73.5618 12.5752C73.3854 12.4962 73.209 12.4238 73.0289 12.3547C73.209 12.4238 73.3892 12.4962 73.5618 12.5752ZM72.7662 12.2559C72.5335 12.1769 72.2971 12.1078 72.0569 12.0452C72.2971 12.1078 72.5335 12.1769 72.7662 12.2559ZM71.9444 12.0123C71.6629 11.9465 71.3777 11.8938 71.0887 11.851C71.3777 11.8938 71.6666 11.9465 71.9444 12.0123ZM70.8298 11.8214C70.6196 11.795 70.4095 11.7753 70.1956 11.7654C70.4095 11.7786 70.6196 11.7983 70.8298 11.8214ZM69.8766 11.7522C69.6664 11.7456 69.4525 11.7489 69.2386 11.7522C69.3587 11.7489 69.4826 11.7391 69.5989 11.7391C69.6927 11.7391 69.7828 11.7456 69.8766 11.7489V11.7522ZM61.1552 12.8056L68.0415 11.851C68.353 11.8082 68.6607 11.7819 68.9647 11.7654C68.6607 11.7819 68.353 11.8082 68.0415 11.851L61.1552 12.8056C60.491 12.8978 59.853 13.046 59.2525 13.2402C59.853 13.046 60.491 12.8978 61.1552 12.8056ZM56.5543 14.5965C56.7119 14.4812 56.8733 14.3726 57.0422 14.2673C56.8733 14.3726 56.7119 14.4812 56.5543 14.5965ZM52.764 14.0599C52.4225 14.05 52.0773 14.0434 51.7245 14.0467C51.7583 14.0467 51.7958 14.0467 51.8296 14.0467C52.1448 14.0467 52.4563 14.0533 52.764 14.0632V14.0599ZM54.9744 14.2442C54.6817 14.2014 54.374 14.1652 54.055 14.1389C54.374 14.1685 54.6817 14.2014 54.9744 14.2442ZM53.781 14.1158C53.5258 14.0961 53.2632 14.0796 52.993 14.0698C53.2632 14.0796 53.5221 14.0961 53.781 14.1158ZM45.919 14.4714C46.2155 14.4319 46.527 14.3924 46.8459 14.3529C46.527 14.3891 46.2117 14.4286 45.919 14.4714C43.6674 14.7841 41.6146 15.245 39.7608 15.8507C41.6146 15.2417 43.6674 14.7808 45.919 14.4714ZM51.5294 14.0467C51.2217 14.0467 50.9102 14.0566 50.6025 14.0665C50.9139 14.0566 51.2217 14.05 51.5294 14.0467ZM50.3998 14.073C50.0508 14.0862 49.7018 14.106 49.3565 14.1257C49.7018 14.1027 50.0508 14.0862 50.3998 14.073ZM49.1239 14.1422C48.8086 14.1652 48.4934 14.1883 48.1894 14.2146C48.4972 14.1883 48.8086 14.1619 49.1239 14.1422ZM48.0581 14.2245C47.7203 14.2541 47.3901 14.2903 47.0674 14.3265C47.3901 14.2903 47.7166 14.2574 48.0581 14.2245ZM30.3413 93.2442C30.4689 93.2607 30.5928 93.2705 30.7204 93.2804C30.5928 93.2705 30.4652 93.2607 30.3413 93.2442ZM25.8118 55.4132L25.9544 52.9969L25.8118 55.4132C25.793 55.7128 25.793 56.0091 25.808 56.2955C25.793 56.0058 25.7968 55.7128 25.8118 55.4132ZM10.2078 60.0977C8.28267 61.2696 6.99923 63.0933 6.6765 65.2561C6.99548 63.0933 8.27892 61.2696 10.2078 60.0977ZM11.9529 59.2813C11.4875 59.4426 11.0447 59.6368 10.6281 59.8573C11.0447 59.6335 11.4875 59.4426 11.9529 59.2813ZM5.72705 88.382C5.70453 88.9416 5.74957 89.4881 5.85464 90.0148C5.74957 89.4881 5.70829 88.9416 5.72705 88.382ZM13.7354 95.7889C13.8518 95.7889 13.9718 95.779 14.0919 95.7757C13.9718 95.779 13.8518 95.7889 13.7354 95.7889ZM26.1045 94.1659L27.8383 93.9256C27.9508 93.9092 28.0597 93.8861 28.1685 93.8697C28.0597 93.8894 27.9508 93.9125 27.8383 93.9256L26.1045 94.1659ZM31.4934 93.3166C31.9663 93.3166 32.4466 93.2837 32.9307 93.2146C32.4466 93.2837 31.9625 93.3166 31.4934 93.3166ZM40.2073 91.8813C39.4418 92.2006 38.6049 92.4278 37.708 92.5529C38.6049 92.4278 39.4418 92.2006 40.2073 91.8813C40.4625 91.776 40.7102 91.6575 40.9466 91.5324C40.9466 91.5324 40.9466 91.5324 40.9504 91.5324C40.9504 91.5324 40.9504 91.5324 40.9466 91.5324C40.7064 91.6575 40.4625 91.7727 40.2073 91.8813ZM41.851 91.6674C41.9486 91.6772 42.0537 91.6805 42.1513 91.6871C42.0499 91.6805 41.9486 91.6772 41.851 91.6674ZM42.7855 91.72C42.9581 91.72 43.1307 91.72 43.3071 91.7134C43.1758 91.72 43.0407 91.7266 42.9093 91.7266C42.868 91.7266 42.8268 91.72 42.7855 91.72ZM44.3954 91.6213C44.1177 91.6608 43.8438 91.6838 43.5698 91.7036C43.8438 91.6871 44.1177 91.6608 44.3954 91.6213ZM49.2965 90.9398L47.953 91.1275L49.2965 90.9398C50.1596 90.818 50.9815 90.581 51.7395 90.2551C50.9777 90.5843 50.1596 90.8213 49.2965 90.9398ZM61.8194 89.2939C62.5324 89.1029 63.2004 88.8857 63.8271 88.6519C63.1967 88.8857 62.5287 89.1029 61.8194 89.2939ZM69.5576 88.0232C68.443 88.0232 67.381 87.8322 66.3978 87.4701C67.381 87.8322 68.443 88.0232 69.5576 88.0232C70.0304 88.0232 70.5108 87.9903 70.9949 87.9211C70.5108 87.9903 70.0304 88.0232 69.5576 88.0232ZM81.4989 84.221C82.0843 83.4968 82.5234 82.6738 82.7898 81.7751C82.5234 82.6738 82.0843 83.4968 81.4989 84.221ZM87.5258 84.9715C86.3624 84.695 85.2929 84.1914 84.3735 83.4803C84.0545 83.2301 83.7618 82.9635 83.4953 82.6771C83.3227 82.4894 83.1651 82.2919 83.015 82.0911C83.1651 82.2919 83.3227 82.4894 83.4953 82.6771C83.758 82.9635 84.0507 83.2301 84.3735 83.4803C85.2929 84.1946 86.3624 84.6983 87.5258 84.9715C87.9911 85.0835 88.4715 85.1559 88.9593 85.1921C88.4677 85.1559 87.9874 85.0802 87.5258 84.9715ZM95.9244 84.4547L92.7383 84.8991L95.9244 84.4547C96.4498 84.3823 96.9527 84.2737 97.4368 84.1321C96.9564 84.2737 96.4498 84.3823 95.9244 84.4547ZM99.5759 83.6943C99.6809 83.7009 99.7898 83.7009 99.8949 83.7074C99.7898 83.7042 99.6809 83.7042 99.5759 83.6943ZM100.368 83.7239C100.559 83.7239 100.754 83.714 100.946 83.7042C100.754 83.714 100.559 83.7239 100.371 83.7239H100.368ZM101.846 83.6251C101.621 83.6515 101.4 83.6778 101.182 83.6943C101.4 83.6778 101.625 83.6515 101.846 83.6251ZM124.194 80.5209L111.528 82.282L124.194 80.5209C124.453 80.4846 124.712 80.4386 124.959 80.3859C124.708 80.4386 124.453 80.4846 124.194 80.5209ZM127.061 79.6814C126.948 79.7341 126.832 79.7802 126.716 79.8262C126.832 79.7769 126.948 79.7341 127.061 79.6814C127.733 79.7538 128.48 79.7867 129.26 79.7867C128.483 79.7867 127.733 79.7538 127.061 79.6814ZM129.286 79.79C129.489 79.79 129.695 79.79 129.902 79.7835C129.695 79.7867 129.489 79.79 129.286 79.79ZM130.525 79.767C130.941 79.7505 131.354 79.7275 131.763 79.6979C131.354 79.7275 130.941 79.7505 130.525 79.767ZM134.049 79.4608C133.55 79.53 132.998 79.5925 132.424 79.6452C132.998 79.5925 133.55 79.5333 134.049 79.4608C135.336 79.2831 136.514 79.0395 137.591 78.7465C136.51 79.0395 135.332 79.2831 134.049 79.4608ZM142.215 76.8833C141.697 77.1762 141.141 77.4561 140.545 77.7161C141.138 77.4561 141.693 77.1762 142.215 76.8833ZM143.716 77.2223C143.367 77.1697 143.029 77.0939 142.702 77.0116C143.033 77.0939 143.367 77.1697 143.716 77.2223C143.918 77.252 144.129 77.2783 144.346 77.3013C144.129 77.2783 143.918 77.252 143.716 77.2223ZM146.485 77.3968C146.688 77.3968 146.894 77.3968 147.101 77.3902C146.894 77.3935 146.688 77.3968 146.485 77.3968ZM148.917 77.3079C148.523 77.3343 148.125 77.3573 147.724 77.3737C148.125 77.3573 148.523 77.3375 148.917 77.3079ZM151.247 77.0676C150.767 77.1334 150.242 77.1927 149.694 77.2454C150.242 77.196 150.767 77.1367 151.247 77.0676C151.578 77.0215 151.893 76.9688 152.208 76.9162C151.893 76.9688 151.578 77.0215 151.247 77.0676ZM159.323 74.5427C158.291 75.1188 157.121 75.6323 155.781 76.0603C157.121 75.6323 158.295 75.1188 159.323 74.5427C159.567 74.6316 159.819 74.7139 160.074 74.783C159.819 74.7139 159.567 74.6349 159.323 74.5427ZM152.749 76.8174C153.338 76.7055 153.897 76.5804 154.437 76.4421C153.897 76.5804 153.338 76.7055 152.749 76.8174ZM176.582 73.2325L163.924 74.9937C163.44 75.0628 162.956 75.0957 162.487 75.0957C162.96 75.0957 163.44 75.0628 163.924 74.9937L176.582 73.2325C177.325 73.1304 178.023 72.9461 178.68 72.7058C178.023 72.9461 177.325 73.1304 176.582 73.2325ZM179.663 72.6037C179.855 72.6169 180.05 72.6235 180.245 72.6235C180.602 72.6235 180.958 72.5971 181.322 72.5609C180.958 72.6004 180.602 72.6235 180.245 72.6235C180.05 72.6235 179.855 72.6169 179.663 72.6037ZM186.377 71.8696L184.23 72.1692L186.377 71.8696C186.677 71.8268 186.974 71.7742 187.263 71.7083C188.126 71.5141 188.929 71.2178 189.649 70.8327C188.929 71.2178 188.13 71.5141 187.263 71.7083C186.974 71.7742 186.681 71.8268 186.377 71.8696ZM190.561 70.9709C190.663 70.9808 190.768 70.9841 190.869 70.9907C190.768 70.9841 190.663 70.9808 190.561 70.9709ZM191.515 71.0236C191.695 71.0236 191.875 71.0236 192.055 71.0137C191.916 71.0203 191.777 71.0302 191.638 71.0302C191.597 71.0302 191.556 71.0236 191.515 71.0236ZM192.329 71.0039C192.614 70.9874 192.899 70.9578 193.192 70.9183C192.903 70.9578 192.614 70.9841 192.329 71.0039Z" fill="white"/>
<path d="M8.3919 94.0474C9.86298 95.1897 11.7206 95.7889 13.7246 95.7889C14.1974 95.7889 14.6778 95.7559 15.1619 95.6868L27.8274 93.9256C28.7243 93.8005 29.5612 93.5635 30.3305 93.2442C30.7095 93.2903 31.0923 93.3199 31.4826 93.3199C31.9554 93.3199 32.4358 93.287 32.9199 93.2179L37.6971 92.5529C38.8905 92.3883 39.9826 92.036 40.9358 91.5357C42.0241 91.7529 43.1874 91.7891 44.3883 91.6245L49.2856 90.9431C50.1488 90.8213 50.9706 90.5843 51.7287 90.2584C52.2991 90.3045 52.9108 90.3275 53.545 90.3275C55.1775 90.3275 56.93 90.1893 58.311 89.9983C61.6885 89.5276 64.3267 88.6256 66.3869 87.4734C67.3701 87.8355 68.4322 88.0265 69.5467 88.0265C70.0196 88.0265 70.4999 87.9935 70.984 87.9244L75.7576 87.2594C79.2964 86.7689 81.9271 84.6489 82.7752 81.7751C83.1917 82.4071 83.7209 82.9832 84.3589 83.4803C85.8299 84.6226 87.6875 85.2217 89.6915 85.2217C90.1644 85.2217 90.6447 85.1888 91.1288 85.1197L95.9098 84.4547C96.9606 84.3099 97.9288 84.0202 98.7957 83.6087C99.7977 83.7601 100.871 83.7634 101.997 83.6087L106.658 82.9602C107.495 82.8449 108.283 82.6211 109.018 82.3215C109.363 82.361 109.716 82.3841 110.073 82.3841C110.546 82.3841 111.026 82.3512 111.51 82.282L124.176 80.5208C125.219 80.376 126.18 80.0863 127.043 79.6814C127.722 79.7538 128.48 79.79 129.268 79.79C130.9 79.79 132.653 79.6518 134.034 79.4608C137.464 78.9835 140.128 78.0618 142.2 76.8832C142.677 77.0281 143.176 77.1433 143.701 77.2223C144.504 77.3441 145.465 77.3968 146.471 77.3968C148.103 77.3968 149.856 77.2585 151.233 77.0676C154.614 76.5968 157.249 75.6949 159.309 74.5427C160.292 74.9048 161.354 75.0957 162.469 75.0957C162.941 75.0957 163.422 75.0628 163.906 74.9937L176.564 73.2325C177.465 73.1074 178.305 72.8704 179.075 72.5478C179.454 72.5938 179.836 72.6235 180.227 72.6235C180.7 72.6235 181.18 72.5906 181.664 72.5214L186.359 71.8696C187.567 71.7017 188.667 71.3462 189.631 70.8327C190.731 71.0598 191.924 71.096 193.174 70.9215L197.831 70.273C202.056 69.6871 204.995 66.7803 205.141 63.0406L206.016 40.6982C206.106 38.4564 205.152 36.4418 203.336 35.0328C201.516 33.6206 199.114 33.0379 196.57 33.3901L191.871 34.0419C190.667 34.2098 189.563 34.5687 188.603 35.0789C187.503 34.8551 186.31 34.8156 185.068 34.99L180.407 35.6385C179.48 35.7669 178.617 36.0138 177.832 36.3529C176.969 36.241 176.072 36.2443 175.153 36.3693L162.649 38.1108C161.429 38.282 160.322 38.6474 159.354 39.1708C159.264 39.1543 159.181 39.1346 159.087 39.1214C156.472 38.7231 153.057 39.1346 152.07 39.2728C148.538 39.7633 145.818 40.7213 143.724 41.9656C143.149 41.7681 142.538 41.6134 141.885 41.5114C139.269 41.1097 135.854 41.5278 134.871 41.6628C133.265 41.8866 131.827 42.2092 130.536 42.6076C130.465 42.2586 130.375 41.913 130.248 41.5706L124.787 28.1988L131.377 14.7117L131.478 14.4911C132.672 11.7654 132.236 8.89811 130.319 6.8209C128.465 4.81611 125.534 3.86803 122.476 4.29598L115.417 5.27369C113.687 5.514 112.152 6.07033 110.853 6.90649C109.446 6.44562 107.874 6.31723 106.237 6.54437L99.3511 7.49904C97.9138 7.69984 96.6116 8.15084 95.4933 8.80264C94.2323 8.47674 92.8588 8.40103 91.4328 8.59525L84.5502 9.54991C80.7374 10.0799 77.8779 12.3777 76.9472 15.482C76.5081 14.7742 75.9414 14.1356 75.2434 13.5858C73.3333 12.0781 70.7701 11.4592 68.0231 11.8411L61.1406 12.7958C59.3655 13.0427 57.8044 13.6747 56.5397 14.5866C56.0406 14.4417 55.5152 14.3199 54.9636 14.2343C52.3554 13.836 48.5726 14.0895 45.9044 14.4615C33.8994 16.1239 27.5197 22.0198 26.938 31.9812C26.6003 37.752 28.6455 41.5081 31.0698 43.9507C28.1839 45.1621 26.255 47.5817 26.0786 50.5774L25.7972 55.4066C25.7634 56.0091 25.7972 56.5851 25.876 57.1349L13.8972 58.8006C9.66784 59.3866 6.72943 62.2967 6.58683 66.033L5.71244 88.3754C5.62612 90.6172 6.57557 92.6319 8.3919 94.0408V94.0474Z" fill="#6D4893"/>
<path d="M48.7677 35.4542C46.7262 34.3547 44.681 33.3013 44.7936 31.359C44.8836 29.8151 45.8931 29.081 48.764 28.686C50.0249 28.5115 51.451 28.5115 52.7044 28.4852C54.0704 28.4424 54.9485 28.0243 55.0161 26.9281L55.2975 22.0955C55.3688 20.8511 54.9298 20.5647 53.7476 20.3837C52.3929 20.1763 49.6571 20.2586 47.019 20.624C38.185 21.8486 34.4472 25.4302 34.0457 32.3038C33.6892 38.4301 36.6839 40.7312 40.4591 42.3837C44.0092 43.9671 44.696 44.9086 44.6172 46.2057C44.5196 47.8483 43.0448 48.7438 40.3503 49.119C38.4589 49.3824 36.7514 49.3725 35.498 49.3462C34.132 49.3363 33.2539 49.807 33.1863 50.9L32.9049 55.7325C32.8336 56.9769 33.2726 57.2633 34.4547 57.4444C35.8095 57.6517 39.1119 57.5892 41.9227 57.2007C50.7604 55.9761 54.9635 52.1838 55.3726 45.2115C55.6503 40.4316 53.5713 38.0515 48.7715 35.4542H48.7677Z" fill="url(#paint0_linear_145_1942)"/>
<path d="M60.1918 54.2248L76.3737 51.983C77.5783 51.8151 78.2426 51.1798 78.3026 50.1362L78.6066 44.9547C78.6666 43.9079 78.0699 43.4503 76.8653 43.6149L69.4048 44.6486L70.8834 19.3467C70.9435 18.2999 70.3468 17.839 69.1422 18.0069L62.2559 18.9616C61.0512 19.1295 60.387 19.7648 60.3269 20.8116L58.4543 52.885C58.3943 53.9318 58.991 54.3927 60.1956 54.2248H60.1918Z" fill="url(#paint1_linear_145_1942)"/>
<path d="M83.6048 50.9823L90.4911 50.0276C91.6957 49.8597 92.3599 49.2244 92.42 48.1808L94.2926 16.1042C94.3527 15.0573 93.756 14.5965 92.5476 14.7644L85.665 15.719C84.4604 15.8869 83.7962 16.5222 83.7361 17.5691L81.8635 49.6425C81.8035 50.6893 82.4001 51.1502 83.6048 50.9823Z" fill="url(#paint2_linear_145_1942)"/>
<path d="M98.4054 48.9314L105.292 47.9767C106.496 47.8088 107.161 47.1735 107.221 46.13L107.9 34.5259L112.553 45.4913C112.899 46.3801 113.555 46.8344 114.933 46.6435L121.988 45.6658C123.365 45.4749 123.823 44.4214 123.481 43.4832L117.158 28.0078L124.851 12.2691C125.313 11.2189 124.967 10.2774 123.59 10.4684L116.531 11.4461C115.154 11.637 114.433 12.2789 113.976 13.283L108.5 24.1694L109.089 14.0599C109.15 13.013 108.553 12.5522 107.348 12.7201L100.462 13.6747C99.2573 13.8426 98.593 14.478 98.533 15.5215L96.6604 47.5982C96.6003 48.645 97.197 49.1059 98.4017 48.938L98.4054 48.9314Z" fill="url(#paint3_linear_145_1942)"/>
<path d="M26.3153 81.9232L19.6842 82.8417L19.9056 79.0625L25.8988 78.2329C26.7394 78.1177 27.201 77.6733 27.2422 76.9458L27.4486 73.4103C27.4899 72.6827 27.0734 72.3601 26.2365 72.4786L20.2434 73.3082L20.4385 69.9438L26.912 69.0484C27.7489 68.9332 28.2142 68.4888 28.2555 67.7613L28.4656 64.1566C28.5069 63.4291 28.0904 63.1065 27.2535 63.225L14.7081 64.9631C13.8674 65.0784 13.4059 65.5228 13.3646 66.2503L12.0624 88.5795C12.0211 89.307 12.4376 89.6296 13.2783 89.5111L25.9813 87.7499C26.8219 87.6347 27.2835 87.1903 27.3248 86.4628L27.535 82.8581C27.5762 82.1306 27.1597 81.808 26.3191 81.9265L26.3153 81.9232Z" fill="url(#paint4_linear_145_1942)"/>
<path d="M44.141 72.472L49.4962 61.5165C49.8152 60.7857 49.5788 60.1306 48.6181 60.2622L43.7057 60.9437C42.745 61.0754 42.2459 61.5231 41.9269 62.2209L38.1179 69.799L38.5307 62.7608C38.5719 62.0333 38.1554 61.7107 37.3185 61.8292L32.5225 62.4942C31.6819 62.6094 31.2203 63.0538 31.179 63.7813L29.8768 86.1105C29.8355 86.8381 30.2521 87.1607 31.089 87.0422L35.885 86.3772C36.7256 86.262 37.1872 85.8176 37.2285 85.0901L37.7013 77.0116L40.9399 84.6456C41.1801 85.2645 41.6379 85.5806 42.5949 85.4489L47.5072 84.7674C48.4642 84.6358 48.7869 83.9017 48.5468 83.2499L44.1448 72.4753L44.141 72.472Z" fill="url(#paint5_linear_145_1942)"/>
<path d="M61.3207 68.6797C59.8984 67.9127 58.4761 67.1819 58.5549 65.8289C58.6187 64.7557 59.3205 64.2455 61.3169 63.969C62.1951 63.8472 63.1858 63.8472 64.0602 63.8307C65.0134 63.8011 65.6251 63.5114 65.6664 62.7477L65.8615 59.3833C65.9103 58.5175 65.6063 58.3167 64.7807 58.1916C63.8388 58.0468 61.9324 58.106 60.0973 58.3595C53.9465 59.2121 51.3421 61.7041 51.0644 66.4906C50.8167 70.7537 52.9033 72.3568 55.5302 73.5057C58.0033 74.6085 58.4798 75.2636 58.4273 76.1656C58.3598 77.3112 57.3353 77.9334 55.4551 78.1934C54.1379 78.3745 52.9483 78.3679 52.0777 78.3515C51.1282 78.3449 50.5128 78.6708 50.4677 79.4345L50.2726 82.7989C50.2238 83.6646 50.5278 83.8655 51.3534 83.9905C52.2953 84.1354 54.5957 84.0926 56.5547 83.8194C62.7054 82.9668 65.6364 80.3266 65.9178 75.471C66.113 72.1429 64.6644 70.487 61.3207 68.6797Z" fill="url(#paint6_linear_145_1942)"/>
<path d="M77.7389 56.2263L70.71 57.2007C69.8694 57.316 69.4078 57.7604 69.3665 58.4879L68.0643 80.8171C68.023 81.5446 68.4396 81.8673 69.2765 81.7487L74.0687 81.0838C74.9093 80.9686 75.3709 80.5241 75.4122 79.7966L75.7349 74.2497L76.6956 74.118C83.8446 73.1271 86.2502 70.6286 86.6404 63.9361C87.0382 57.1053 84.9705 55.2256 77.7389 56.2263ZM76.7069 68.4756L76.0689 68.5645L76.4405 62.1847L77.0784 62.0959C78.9961 61.8292 79.3226 62.3691 79.1687 64.9697C79.0186 67.5704 78.6208 68.209 76.7069 68.4756Z" fill="url(#paint7_linear_145_1942)"/>
<path d="M103.19 68.8641V68.8312C105.664 67.251 106.801 64.7195 107.037 60.6968C107.409 54.3532 105.262 52.4143 98.0305 53.415L90.919 54.3993C90.0784 54.5145 89.6168 54.9589 89.5755 55.6865L88.2733 78.0157C88.232 78.7432 88.6486 79.0625 89.4854 78.9473L94.2777 78.2823C95.1183 78.1671 95.5799 77.7227 95.6212 76.9952L95.9777 70.8919L98.6909 76.7055C99.0062 77.3836 99.3514 77.5779 100.391 77.433L105.067 76.7845C106.144 76.6331 106.504 75.8957 106.151 75.1879L103.194 68.8575L103.19 68.8641ZM97.0285 65.1771L96.3079 65.2759L96.6532 59.38L97.3737 59.2813C99.2914 59.0146 99.6892 59.6499 99.5578 61.9016C99.4265 64.1566 98.9461 64.9105 97.0285 65.1771Z" fill="url(#paint8_linear_145_1942)"/>
<path d="M122.982 68.5316L116.351 69.4501L116.573 65.6709L122.566 64.8413C123.403 64.7261 123.868 64.2817 123.909 63.5542L124.116 60.0186C124.157 59.2911 123.74 58.9685 122.904 59.087L116.91 59.9166L117.106 56.5522L123.579 55.6535C124.42 55.5383 124.881 55.0939 124.922 54.3664L125.133 50.7617C125.174 50.0342 124.757 49.7116 123.92 49.8301L111.375 51.5682C110.534 51.6835 110.073 52.1279 110.032 52.8554L108.729 75.1846C108.688 75.9121 109.105 76.2347 109.942 76.1162L122.645 74.355C123.485 74.2398 123.947 73.7954 123.988 73.0679L124.198 69.4632C124.239 68.7357 123.823 68.4131 122.986 68.5316H122.982Z" fill="url(#paint9_linear_145_1942)"/>
<path d="M137.299 58.1554C135.877 57.3884 134.454 56.6576 134.533 55.3046C134.597 54.2314 135.299 53.7212 137.295 53.4447C138.173 53.3228 139.164 53.3228 140.039 53.3064C140.992 53.2768 141.603 52.9871 141.648 52.2233L141.844 48.859C141.892 47.9932 141.588 47.7924 140.763 47.6673C139.821 47.5224 137.914 47.5817 136.076 47.8352C129.925 48.6878 127.32 51.1798 127.043 55.9663C126.795 60.2293 128.878 61.8325 131.505 62.9814C133.978 64.0842 134.454 64.7393 134.402 65.6413C134.334 66.7869 133.31 67.4091 131.43 67.6691C130.113 67.8502 128.923 67.8436 128.052 67.8271C127.103 67.8205 126.487 68.1465 126.442 68.9102L126.247 72.2745C126.198 73.1403 126.502 73.3411 127.328 73.4662C128.27 73.6111 130.57 73.5683 132.529 73.295C138.68 72.4424 141.611 69.8023 141.892 64.9467C142.088 61.6185 140.639 59.9627 137.295 58.1554H137.299Z" fill="url(#paint10_linear_145_1942)"/>
<path d="M154.554 55.7622C153.132 54.9951 151.709 54.2643 151.788 52.9113C151.852 51.8349 152.554 51.3246 154.55 51.0481C155.428 50.9263 156.419 50.9263 157.293 50.9098C158.247 50.8802 158.858 50.5905 158.9 49.8268L159.095 46.4624C159.144 45.5967 158.84 45.3959 158.014 45.2708C157.072 45.1259 155.166 45.1852 153.331 45.4386C147.18 46.2913 144.575 48.7833 144.298 53.5697C144.05 57.8328 146.133 59.436 148.763 60.5849C151.236 61.6877 151.709 62.3428 151.657 63.2447C151.589 64.3903 150.565 65.0125 148.685 65.2726C147.367 65.4536 146.178 65.4471 145.307 65.4306C144.358 65.424 143.742 65.7499 143.697 66.5136L143.502 69.878C143.453 70.7438 143.757 70.9446 144.583 71.0697C145.525 71.2145 147.825 71.1717 149.784 70.8985C155.935 70.0459 158.866 67.4058 159.147 62.5501C159.342 59.222 157.894 57.5662 154.55 55.7589L154.554 55.7622Z" fill="url(#paint11_linear_145_1942)"/>
<path d="M175.551 61.2465L168.92 62.165L169.142 58.3858L175.131 57.5563C175.972 57.4411 176.433 56.9966 176.475 56.2691L176.681 52.7336C176.722 52.0061 176.306 51.6835 175.465 51.802L169.476 52.6315L169.671 49.2672L176.141 48.3718C176.981 48.2565 177.443 47.8121 177.484 47.0846L177.694 43.4799C177.735 42.7524 177.319 42.4298 176.482 42.5483L163.937 44.2865C163.096 44.4017 162.634 44.8461 162.593 45.5736L161.291 67.9028C161.25 68.6304 161.666 68.953 162.503 68.8345L175.206 67.0733C176.043 66.9581 176.508 66.5136 176.55 65.7861L176.76 62.1814C176.801 61.4539 176.384 61.1313 175.548 61.2498L175.551 61.2465Z" fill="url(#paint12_linear_145_1942)"/>
<path d="M197.973 39.5658L193.26 40.2176C192.419 40.3328 191.958 40.7773 191.916 41.5048L191.35 51.1765L187.931 41.8833C187.691 41.2282 187.346 41.0373 186.426 41.1624L181.754 41.8109C180.913 41.9261 180.452 42.3706 180.41 43.0981L179.108 65.4273C179.067 66.1548 179.484 66.4774 180.324 66.3589L185.038 65.7071C185.878 65.5919 186.34 65.1475 186.381 64.42L187.068 54.7285L190.367 64.0381C190.607 64.6932 190.952 64.8874 191.871 64.759L196.544 64.1105C197.384 63.9953 197.846 63.5509 197.887 62.8234L199.189 40.4941C199.231 39.7666 198.814 39.444 197.977 39.5625L197.973 39.5658Z" fill="url(#paint13_linear_145_1942)"/>
<path d="M42.6579 43.5096C42.3089 43.2956 42.0537 43.1837 42.0537 43.1837C42.2676 43.2956 42.4665 43.4042 42.6579 43.5096Z" fill="white"/>
<path d="M38.5307 62.7608C38.5719 62.0333 38.1554 61.7107 37.3185 61.8292L32.5225 62.4942C31.6819 62.6094 31.2203 63.0538 31.179 63.7813L29.8768 86.1106C29.8355 86.8381 30.2521 87.1607 31.089 87.0422L31.2578 87.0191L32.5375 65.0784C32.5788 64.3508 33.0404 63.9097 33.881 63.7912L38.5081 63.1493L38.5307 62.7608Z" fill="white"/>
<path d="M58.3485 75.5336C58.4236 75.7377 58.4423 75.9451 58.4273 76.1656C58.3598 77.3112 57.3353 77.9334 55.4551 78.1935C54.1379 78.3745 52.9483 78.3679 52.0777 78.3515C51.1282 78.3449 50.5128 78.6708 50.4677 79.4345L50.2726 82.7989C50.2238 83.6647 50.5278 83.8655 51.3534 83.9906C51.4359 84.0037 51.5373 84.0136 51.6386 84.0202L51.83 80.7315C51.875 79.9678 52.4867 79.6419 53.4399 79.6485C54.3105 79.6649 55.5002 79.6715 56.8174 79.4905C58.6975 79.2304 59.722 78.6082 59.7896 77.4626C59.8308 76.7779 59.5606 76.2347 58.3523 75.5303L58.3485 75.5336Z" fill="white"/>
<path d="M94.2886 16.0317C94.3186 15.0376 93.7219 14.5997 92.5473 14.7643L85.661 15.719C84.4564 15.8869 83.7921 16.5222 83.7321 17.5691L81.8595 49.6425C81.8069 50.5708 82.2723 51.0349 83.218 51.0119C83.218 50.9856 83.218 50.9658 83.218 50.9395L85.0906 18.8661C85.1506 17.8193 85.8149 17.1839 87.0195 17.016L93.9058 16.0614C94.0409 16.0416 94.1685 16.035 94.2886 16.0317Z" fill="white"/>
<path d="M37.708 76.9754L40.9354 84.6423C41.1305 85.146 41.472 85.4423 42.1025 85.4686L37.7943 75.527L37.708 76.9754Z" fill="white"/>
<path d="M77.7388 56.2263L70.7099 57.2007C69.8692 57.316 69.4076 57.7604 69.3664 58.4879L68.0604 80.8171C68.0191 81.5446 68.4357 81.8672 69.2725 81.7487L69.4414 81.7257L70.7211 59.7849C70.7624 59.0574 71.224 58.6163 72.0646 58.4978L79.0935 57.5234C82.1858 57.0954 83.3454 56.9538 85.7434 57.9875C84.5387 56.0716 82.0694 55.6239 77.735 56.2263H77.7388Z" fill="white"/>
<path d="M80.5461 64.7097C80.5461 63.1131 79.4765 62.1617 78.1781 62.0564C78.9211 62.1913 79.12 62.9781 79.1763 63.4126C79.2138 63.8208 79.2063 64.3311 79.1688 64.9697C79.075 66.6058 78.8799 67.465 78.2719 67.9423C78.2119 67.9884 78.1406 68.0246 78.073 68.0641C78.0017 68.1036 77.9191 68.1497 77.8291 68.1892C77.7315 68.232 77.6302 68.2748 77.5176 68.3077C77.0823 68.4361 76.069 68.5612 76.069 68.5612L75.9902 69.9208C76.9284 69.9208 77.9454 69.641 78.7598 69.3974C79.1988 69.2855 79.5253 69.1241 79.773 68.8805L79.788 68.8674C80.2871 68.367 80.441 67.7679 80.5273 66.2634C80.5611 65.6775 80.5686 65.2034 80.5423 64.815C80.5423 64.7788 80.5461 64.7426 80.5461 64.7064V64.7097Z" fill="white"/>
<path d="M64.7878 58.1916C63.8458 58.0468 61.9394 58.106 60.1006 58.3595C53.9498 59.2121 51.3454 61.7041 51.0677 66.4906C50.8876 69.5982 51.9496 71.2902 53.552 72.426C52.7527 71.3528 52.3024 69.8978 52.4262 67.7909C52.7039 63.0077 55.3083 60.5124 61.4591 59.6598C63.1328 59.4294 64.8516 59.3603 65.8611 59.459V59.3833C65.9174 58.5175 65.6096 58.3167 64.7878 58.1916Z" fill="white"/>
<path d="M59.8088 54.2545C59.8088 54.2314 59.8088 54.2084 59.8088 54.182L61.6814 22.1087C61.7415 21.0618 62.4057 20.4265 63.6103 20.2586L70.4966 19.3039C70.6317 19.2842 70.7593 19.2776 70.8794 19.2743C70.9057 18.2834 70.3127 17.8423 69.1381 18.0069L62.2518 18.9616C61.0472 19.1295 60.383 19.7648 60.3229 20.8116L58.4503 52.885C58.3978 53.8133 58.8631 54.2775 59.8088 54.2545Z" fill="white"/>
<path d="M37.2839 40.5962C35.9705 39.0259 35.2086 36.8566 35.4 33.6041C35.8016 26.7306 39.5393 23.1489 48.3733 21.9243C51.0115 21.5589 53.751 21.4766 55.102 21.684C55.1733 21.6939 55.2296 21.7071 55.2971 21.7202C55.2596 20.7952 54.798 20.5483 53.7435 20.387C52.3887 20.1796 49.653 20.2619 47.0148 20.6273C38.1808 21.8519 34.4393 25.4335 34.0415 32.3071C33.7939 36.5603 35.1636 38.9667 37.2839 40.5962Z" fill="white"/>
<path d="M98.0227 48.961C98.0227 48.938 98.0227 48.9149 98.0227 48.8886L99.8953 16.8119C99.9553 15.7651 100.62 15.1298 101.824 14.9652L108.71 14.0105C108.846 13.9907 108.973 13.9842 109.093 13.9809C109.12 12.99 108.527 12.5489 107.352 12.7135L100.466 13.6681C99.2611 13.836 98.5968 14.4714 98.5368 15.5149L96.6642 47.5916C96.6116 48.5199 97.077 48.9841 98.0227 48.961Z" fill="white"/>
<path d="M69.3105 46.1234L78.2196 44.9119C78.3547 44.8922 78.4823 44.8856 78.6024 44.8823C78.6324 43.8914 78.0357 43.4503 76.8611 43.6149L69.3969 44.6255L69.3105 46.1234Z" fill="white"/>
<path d="M108.26 28.3337L115.337 14.5767C115.795 13.5727 116.516 12.9307 117.889 12.7398L124.948 11.7621C124.967 11.7621 124.982 11.7621 125.001 11.7621C125.158 10.9391 124.738 10.3071 123.59 10.4651L116.531 11.4428C115.153 11.6337 114.433 12.2756 113.975 13.2797L108.5 24.1661L108.256 28.337L108.26 28.3337Z" fill="white"/>
<path d="M27.2494 63.2217L14.704 64.9598C13.8634 65.0751 13.4018 65.5195 13.3605 66.247L12.0546 88.5762C12.0133 89.3037 12.4298 89.6264 13.2704 89.5078L13.4393 89.4848L14.719 67.544C14.7603 66.8165 15.2219 66.3721 16.0625 66.2569L28.4391 64.5418L28.4616 64.1533C28.5029 63.4258 28.0863 63.1032 27.2494 63.2217Z" fill="white"/>
<path d="M34.2559 57.4114C34.2521 57.2962 34.2484 57.1744 34.2559 57.0329L34.5373 52.2003C34.6011 51.1041 35.483 50.6366 36.849 50.6465C38.0987 50.6695 39.8062 50.6827 41.7013 50.4194C44.0731 50.0902 45.4953 49.3593 45.8744 48.0689C45.9344 47.9043 45.9719 47.7167 45.9719 47.506C45.987 47.236 45.9644 46.9826 45.8969 46.7357C45.6605 45.6131 44.8086 44.7045 42.662 43.5096C43.4163 43.9737 44.6172 44.9086 44.6172 46.209C44.5196 47.8516 43.0448 48.747 40.3503 49.1223C38.4589 49.3857 36.7514 49.3758 35.498 49.3495C34.132 49.3396 33.2539 49.8103 33.1863 50.9033L32.9049 55.7358C32.8373 56.9078 33.2276 57.2271 34.2596 57.4114H34.2559Z" fill="white"/>
<path d="M27.4444 73.4103C27.4857 72.6827 27.0691 72.3601 26.2323 72.4786L20.2504 73.3082L20.1641 74.806L27.4219 73.7987L27.4444 73.4103Z" fill="white"/>
<path d="M26.3151 81.9232L19.684 82.8351L19.5977 84.3329L27.5085 83.2433L27.531 82.8548C27.5723 82.1273 27.1557 81.8047 26.3151 81.9232Z" fill="white"/>
<path d="M48.6217 60.2623L43.7094 60.9437C42.7487 61.0754 42.2496 61.5231 41.9306 62.221L38.1216 69.799L37.8701 72.8671L42.8162 63.202C43.1352 62.5041 43.6343 62.0564 44.595 61.9247L49.605 61.2169C49.7438 60.6178 49.4511 60.147 48.6255 60.2623H48.6217Z" fill="white"/>
<path d="M176.68 52.7336C176.722 52.0061 176.305 51.6835 175.464 51.802L169.475 52.6315L169.389 54.1294L176.658 53.122L176.68 52.7336Z" fill="white"/>
<path d="M175.55 61.2465L168.919 62.165L168.833 63.6628L176.744 62.5666L176.766 62.1782C176.808 61.4506 176.391 61.128 175.554 61.2465H175.55Z" fill="white"/>
<path d="M95.9814 70.8952L98.6947 76.7088C98.9424 77.2421 99.2163 77.4725 99.8243 77.4791L96.0527 69.6936L95.9814 70.8985V70.8952Z" fill="white"/>
<path d="M197.973 39.5658L193.26 40.2176C192.419 40.3328 191.958 40.7773 191.916 41.5048L191.35 51.1699L192.479 54.3565L193.275 42.8018C193.316 42.0743 193.778 41.6299 194.618 41.5146L199.163 40.8859L199.185 40.4974C199.227 39.7699 198.81 39.4506 197.973 39.5658Z" fill="white"/>
<path d="M176.485 42.545L163.939 44.2832C163.099 44.3984 162.637 44.8428 162.596 45.5703L161.29 67.8995C161.249 68.6271 161.665 68.9464 162.502 68.8312L162.671 68.8081L163.951 46.8673C163.992 46.1398 164.453 45.6954 165.294 45.5802L177.671 43.8651L177.693 43.4766C177.734 42.7491 177.318 42.4298 176.481 42.545H176.485Z" fill="white"/>
<path d="M187.061 54.7087L190.363 64.0447C190.569 64.6109 190.858 64.8315 191.53 64.7985L187.169 52.8389L187.061 54.7087Z" fill="white"/>
<path d="M188.126 42.4331L187.931 41.8866C187.691 41.2315 187.346 41.0406 186.426 41.1657L181.754 41.8142C180.913 41.9294 180.452 42.3738 180.41 43.1014L179.108 65.4306C179.067 66.1581 179.484 66.4807 180.324 66.3622L180.493 66.3392L181.773 44.3984C181.814 43.6709 182.276 43.2297 183.116 43.1112L187.788 42.4627C187.912 42.4463 188.021 42.4364 188.126 42.4298V42.4331Z" fill="white"/>
<path d="M158.017 45.274C157.076 45.1292 155.169 45.1885 153.334 45.4419C147.183 46.2945 144.579 48.7865 144.301 53.573C144.121 56.6806 145.179 58.3727 146.785 59.5084C145.986 58.4352 145.536 56.9802 145.66 54.8733C145.941 50.0902 148.542 47.5949 154.693 46.7423C156.366 46.5118 158.085 46.4427 159.095 46.5414V46.4657C159.151 45.5999 158.843 45.3991 158.021 45.274H158.017Z" fill="white"/>
<path d="M98.0305 53.415L90.919 54.3993C90.0784 54.5145 89.6168 54.9589 89.5755 55.6865L88.2733 78.0157C88.232 78.7432 88.6486 79.0625 89.4854 78.9473L89.6543 78.9243L90.934 56.9835C90.9753 56.256 91.4369 55.8115 92.2775 55.6963L99.389 54.712C102.541 54.2742 104.729 54.3993 106.159 55.2025C104.951 53.2932 102.44 52.8027 98.0305 53.415Z" fill="white"/>
<path d="M122.982 68.5316L116.359 69.4204L116.272 70.9183L124.176 69.8517L124.198 69.4632C124.24 68.7357 123.823 68.4131 122.986 68.5316H122.982Z" fill="white"/>
<path d="M114.231 46.6962L107.972 32.5408L107.896 34.5226L112.55 45.488C112.786 46.1003 113.27 46.6962 114.231 46.6962Z" fill="white"/>
<path d="M98.5666 59.278C98.5666 59.278 99.5236 59.6434 99.5236 61.9609C99.5236 63.8965 99.0245 65.1804 96.3225 65.2265L96.2324 66.5268L97.8649 66.3095C99.7825 66.0429 100.781 64.9269 100.912 62.6752C101.021 60.7857 100.165 59.278 98.5629 59.278H98.5666Z" fill="white"/>
<path d="M124.111 60.0154C124.153 59.2878 123.736 58.9685 122.899 59.0837L116.913 59.9001L116.827 61.398L124.092 60.4038L124.115 60.0154H124.111Z" fill="white"/>
<path d="M140.762 47.6673C139.821 47.5224 137.914 47.5817 136.075 47.8352C129.924 48.6878 127.32 51.1798 127.042 55.9663C126.862 59.0738 127.921 60.7659 129.527 61.9016C128.727 60.8285 128.277 59.3734 128.401 57.2666C128.679 52.4834 131.283 49.9881 137.434 49.1355C139.107 48.905 140.826 48.8359 141.836 48.9347V48.859C141.892 47.9932 141.584 47.7924 140.762 47.6673Z" fill="white"/>
<path d="M123.917 49.8268L111.371 51.5649C110.531 51.6802 110.069 52.1246 110.028 52.8521L108.725 75.1813C108.684 75.9088 109.101 76.2314 109.938 76.1129L110.106 76.0899L111.386 54.1491C111.427 53.4216 111.889 52.9805 112.73 52.862L125.106 51.1469L125.129 50.7584C125.17 50.0309 124.753 49.7116 123.917 49.8268Z" fill="white"/>
<path d="M149.728 61.049C149.728 61.049 151.244 61.7601 151.608 62.7345C151.653 62.8991 151.672 63.0703 151.661 63.2513C151.593 64.3969 150.569 65.0191 148.689 65.2792C147.371 65.4602 146.182 65.4536 145.311 65.4372C144.362 65.4306 143.746 65.7565 143.701 66.5202L143.506 69.8846C143.457 70.7504 143.761 70.9512 144.587 71.0763C144.669 71.0894 144.771 71.0993 144.872 71.1059L145.063 67.8172C145.108 67.0535 145.72 66.7276 146.673 66.7342C147.544 66.7507 148.734 66.7572 150.051 66.5762C151.74 66.3425 152.73 65.8125 152.967 64.8743C152.993 64.7854 153.012 64.68 153.019 64.5615C153.019 64.5549 153.019 64.5516 153.019 64.5451C153.019 64.5352 153.019 64.5253 153.019 64.5154C153.019 64.4661 153.027 64.42 153.027 64.364C153.027 63.0011 151.908 61.9938 149.728 61.049Z" fill="white"/>
<path d="M132.48 63.4456C132.691 63.5476 134.24 64.341 134.398 65.3648C134.406 65.4536 134.409 65.5458 134.406 65.6413C134.338 66.7869 133.313 67.4091 131.433 67.6691C130.116 67.8502 128.927 67.8436 128.056 67.8271C127.106 67.8205 126.491 68.1464 126.446 68.9102L126.251 72.2745C126.198 73.1403 126.506 73.3411 127.332 73.4662C127.414 73.4794 127.515 73.4893 127.617 73.4958L127.808 70.2072C127.853 69.4435 128.465 69.1176 129.418 69.1242C130.289 69.1406 131.478 69.1472 132.796 68.9661C134.672 68.7061 135.7 68.0839 135.768 66.9383C135.779 66.7638 135.768 66.5959 135.727 66.4346C135.561 65.243 134.454 64.3443 132.488 63.4456H132.48Z" fill="white"/>
<defs>
<linearGradient id="paint0_linear_145_1942" x1="43.7682" y1="22.9598" x2="47.4894" y2="57.5063" gradientUnits="userSpaceOnUse">
<stop stop-color="#FCD754"/>
<stop offset="1" stop-color="#FFAD05"/>
</linearGradient>
<linearGradient id="paint1_linear_145_1942" x1="66.5896" y1="20.2326" x2="70.2297" y2="54.0125" gradientUnits="userSpaceOnUse">
<stop stop-color="#FCD754"/>
<stop offset="1" stop-color="#FFAD05"/>
</linearGradient>
<linearGradient id="paint2_linear_145_1942" x1="87.6483" y1="17.2316" x2="91.2883" y2="51.0115" gradientUnits="userSpaceOnUse">
<stop stop-color="#FCD754"/>
<stop offset="1" stop-color="#FFAD05"/>
</linearGradient>
<linearGradient id="paint3_linear_145_1942" x1="110.33" y1="13.8414" x2="114.022" y2="48.1092" gradientUnits="userSpaceOnUse">
<stop stop-color="#FCD754"/>
<stop offset="1" stop-color="#FFAD05"/>
</linearGradient>
<linearGradient id="paint4_linear_145_1942" x1="21.3577" y1="65.4105" x2="23.9174" y2="89.1597" gradientUnits="userSpaceOnUse">
<stop stop-color="#FCD754"/>
<stop offset="1" stop-color="#FFAD05"/>
</linearGradient>
<linearGradient id="paint5_linear_145_1942" x1="40.7889" y1="62.6568" x2="43.3571" y2="86.5086" gradientUnits="userSpaceOnUse">
<stop stop-color="#FCD754"/>
<stop offset="1" stop-color="#FFAD05"/>
</linearGradient>
<linearGradient id="paint6_linear_145_1942" x1="59.0284" y1="60.0186" x2="61.6196" y2="84.0698" gradientUnits="userSpaceOnUse">
<stop stop-color="#FCD754"/>
<stop offset="1" stop-color="#FFAD05"/>
</linearGradient>
<linearGradient id="paint7_linear_145_1942" x1="77.9801" y1="57.7083" x2="80.5241" y2="81.3082" gradientUnits="userSpaceOnUse">
<stop stop-color="#FCD754"/>
<stop offset="1" stop-color="#FFAD05"/>
</linearGradient>
<linearGradient id="paint8_linear_145_1942" x1="98.2213" y1="54.8934" x2="100.765" y2="78.4965" gradientUnits="userSpaceOnUse">
<stop stop-color="#FCD754"/>
<stop offset="1" stop-color="#FFAD05"/>
</linearGradient>
<linearGradient id="paint9_linear_145_1942" x1="117.714" y1="52.0098" x2="120.271" y2="75.7554" gradientUnits="userSpaceOnUse">
<stop stop-color="#FCD754"/>
<stop offset="1" stop-color="#FFAD05"/>
</linearGradient>
<linearGradient id="paint10_linear_145_1942" x1="134.759" y1="49.4871" x2="137.35" y2="73.535" gradientUnits="userSpaceOnUse">
<stop stop-color="#FCD754"/>
<stop offset="1" stop-color="#FFAD05"/>
</linearGradient>
<linearGradient id="paint11_linear_145_1942" x1="151.96" y1="47.0943" x2="154.551" y2="71.1422" gradientUnits="userSpaceOnUse">
<stop stop-color="#FCD754"/>
<stop offset="1" stop-color="#FFAD05"/>
</linearGradient>
<linearGradient id="paint12_linear_145_1942" x1="170.111" y1="44.7203" x2="172.671" y2="68.4695" gradientUnits="userSpaceOnUse">
<stop stop-color="#FCD754"/>
<stop offset="1" stop-color="#FFAD05"/>
</linearGradient>
<linearGradient id="paint13_linear_145_1942" x1="189.693" y1="41.9448" x2="192.264" y2="65.8035" gradientUnits="userSpaceOnUse">
<stop stop-color="#FCD754"/>
<stop offset="1" stop-color="#FFAD05"/>
</linearGradient>
</defs>
</svg>
