<svg width="36" height="36" viewBox="0 0 36 36" fill="none" xmlns="http://www.w3.org/2000/svg">
<rect width="36" height="36" rx="18" transform="matrix(-1 0 0 1 36 0)" fill="#C7F0BD"/>
<path fill-rule="evenodd" clip-rule="evenodd" d="M14.6204 11.6703C14.3692 11.9215 14.3692 12.3288 14.6204 12.58L20.0782 18.0379L14.62 23.4961C14.3688 23.7473 14.3688 24.1545 14.62 24.4057L15.5297 25.3154C15.7809 25.5666 16.1882 25.5666 16.4394 25.3154L23.2594 18.4954C23.4004 18.3544 23.4623 18.164 23.4449 17.9798C23.4325 17.8339 23.3705 17.6914 23.2588 17.5798L16.4397 10.7607C16.1885 10.5095 15.7812 10.5095 15.53 10.7607L14.6204 11.6703Z" fill="#323232"/>
</svg>
