<svg width="46" height="51" viewBox="0 0 46 51" fill="none" xmlns="http://www.w3.org/2000/svg">
<g clip-path="url(#clip0_4513_26294)">
<path d="M33.2595 2.33496L33.2199 8.28762L32.2891 8.67012L28.7637 4.17574L33.2595 2.33496ZM33.5541 24.257L31.0241 16.6707C30.6252 15.4754 30.672 14.1765 31.1499 13.0171C31.6315 11.8576 32.4904 10.9771 33.5685 10.5348C34.0501 10.3356 34.5532 10.236 35.0599 10.236C36.8532 10.236 38.4776 11.4911 39.0993 13.3597L41.6293 20.946C42.0282 22.1413 41.9815 23.4402 41.5035 24.5996C41.022 25.7591 40.163 26.6396 39.0849 27.0819C38.6034 27.2811 38.1002 27.3807 37.5935 27.3807C35.8002 27.3807 34.1759 26.1257 33.5505 24.257H33.5541ZM39.243 35.2499L39.2826 29.2972L40.2134 28.9147L43.7388 33.4091L39.243 35.2499Z" fill="white"/>
<path d="M8.4418 7.57422L11.1659 15.9414L9.63492 17.3957L2.58398 13.1404L8.4418 7.5782V7.57422ZM17.4441 36.0984L11.3707 28.2332C10.3177 26.8705 9.80742 25.1373 9.9332 23.3523C10.059 21.5673 10.8029 19.9377 12.032 18.7743C13.128 17.7344 14.526 17.1606 15.9635 17.1606C17.7352 17.1606 19.4135 18.0173 20.5635 19.5074L26.637 27.3726C28.8076 30.1816 28.5093 34.4249 25.9757 36.8315C24.8796 37.8714 23.4816 38.4452 22.0441 38.4452C20.2724 38.4452 18.5941 37.5885 17.4441 36.0984ZM29.573 48.0555L26.8418 39.6644L28.3727 38.2101L35.4237 42.4654L29.573 48.0515V48.0555Z" fill="white"/>
<path d="M20.4879 17.0146L9.19727 27.7324L17.7821 38.849L29.0728 28.1312L20.4879 17.0146Z" fill="#A9D8D2"/>
<path d="M21.4333 18.2373L10.1426 28.9551L16.8389 37.6262L28.1296 26.9084L21.4333 18.2373Z" fill="#C7DFB8"/>
<path d="M23.7594 21.248L12.4688 31.9658L14.5162 34.6171L25.8069 23.8993L23.7594 21.248Z" fill="#A187BC"/>
<path d="M8.54813 6.33379L1.52148 13.0039L3.13188 15.0892L10.1585 8.4191L8.54813 6.33379Z" fill="#C7DFB8"/>
<path d="M34.9641 40.5389L27.9375 47.209L29.6881 49.4759L36.7148 42.8058L34.9641 40.5389Z" fill="#C7DFB8"/>
<path d="M15.9595 17.1608C17.7312 17.1608 19.4095 18.0174 20.5595 19.5076L26.6329 27.3727C28.8035 30.1817 28.5052 34.4251 25.9716 36.8316C24.8756 37.8716 23.4776 38.4453 22.0401 38.4453C20.2684 38.4453 18.5901 37.5887 17.4401 36.0985L11.3666 28.2334C10.3137 26.8707 9.80337 25.1375 9.92915 23.3525C10.0549 21.5675 10.7988 19.9379 12.0279 18.7745C13.124 17.7345 14.522 17.1608 15.9595 17.1608ZM15.9595 15.0371C14.1266 15.0371 12.2831 15.7344 10.7809 17.1608C7.43868 20.3323 7.05055 25.9065 9.91118 29.612L15.9846 37.4771C17.5587 39.5171 19.794 40.565 22.0401 40.565C23.8729 40.565 25.7165 39.8677 27.2187 38.4413C30.5609 35.2698 30.949 29.6956 28.0884 25.9902L22.0149 18.125C20.4409 16.085 18.2056 15.0371 15.9595 15.0371Z" fill="#333333"/>
<path d="M8.44075 7.5741L11.1648 15.9413L9.63388 17.3956L2.58294 13.1403L8.44075 7.57809M8.44075 5.44246C8.0095 5.44246 7.57466 5.60184 7.21169 5.94848L1.33591 11.5266C0.326064 12.4829 0.49497 14.2639 1.65934 14.9691L9.87466 19.9575L13.4109 16.5987L10.2304 6.82902C9.94294 5.94449 9.20263 5.43848 8.44075 5.43848V5.44246Z" fill="#333333"/>
<path d="M11.2296 18.8024C10.9601 18.8024 10.6906 18.6749 10.5037 18.4318L7.39512 14.4076C7.05012 13.9614 7.09684 13.292 7.49934 12.9095C7.90184 12.527 8.50559 12.5788 8.84699 13.025L11.9556 17.0493C12.3006 17.4955 12.2539 18.1649 11.8514 18.5474C11.6717 18.7187 11.4489 18.8024 11.2296 18.8024Z" fill="#333333"/>
<path d="M28.3685 38.2144L35.4195 42.4697L29.5688 48.0558L26.8376 39.6647L28.3685 38.2104M28.1241 35.6484L24.5879 39.0073L27.7684 48.777C28.0559 49.6615 28.7962 50.1675 29.558 50.1675C29.9893 50.1675 30.4241 50.0081 30.7871 49.6615L36.6629 44.0834C37.6727 43.1271 37.5038 41.3461 36.3395 40.6409L28.1241 35.6524V35.6484Z" fill="#333333"/>
<path d="M29.8781 42.9475C29.6086 42.9475 29.339 42.82 29.1521 42.577L26.0436 38.5528C25.6986 38.1065 25.7453 37.4371 26.1478 37.0546C26.5503 36.6721 27.154 36.7279 27.4954 37.1702L30.604 41.1944C30.949 41.6407 30.9023 42.31 30.4998 42.6925C30.3201 42.8639 30.0973 42.9475 29.8781 42.9475Z" fill="#333333"/>
<path d="M40.0576 11.3543L29.166 15.8164L32.7397 26.539L43.6313 22.0769L40.0576 11.3543Z" fill="#A9D8D2"/>
<path d="M40.4502 12.5311L29.5586 16.9932L32.3463 25.3574L43.2379 20.8954L40.4502 12.5311Z" fill="#C7DFB8"/>
<path d="M41.419 15.4354L30.5273 19.8975L31.3794 22.4538L42.271 17.9918L41.419 15.4354Z" fill="#A187BC"/>
<path d="M33.5726 0.99167L27.7812 3.36426L28.7217 6.18598L34.513 3.81339L33.5726 0.99167Z" fill="#C7DFB8"/>
<path d="M43.7113 30.7552L37.748 33.1982L38.965 36.8497L44.9283 34.4066L43.7113 30.7552Z" fill="#C7DFB8"/>
<path d="M35.0645 10.236C36.8578 10.236 38.4822 11.4911 39.1039 13.3597L41.6339 20.946C42.0328 22.1413 41.9861 23.4402 41.5081 24.5996C41.0265 25.7591 40.1676 26.6397 39.0895 27.0819C38.6079 27.2811 38.1048 27.3807 37.5981 27.3807C35.8048 27.3807 34.1804 26.1257 33.5551 24.257L31.0251 16.6707C30.6262 15.4754 30.6729 14.1765 31.1509 13.0171C31.6325 11.8576 32.4914 10.9771 33.5695 10.5348C34.0511 10.3356 34.5542 10.236 35.0609 10.236M35.0609 8.1123C34.3458 8.1123 33.6162 8.25176 32.9047 8.54262C29.6811 9.86145 28.0351 13.8299 29.2247 17.4039L31.7547 24.9901C32.6819 27.7752 35.0609 29.5004 37.5909 29.5004C38.3061 29.5004 39.0356 29.361 39.7472 29.0701C42.9708 27.7513 44.6167 23.7829 43.4272 20.2089L40.8972 12.6226C39.97 9.83754 37.5909 8.1123 35.0609 8.1123Z" fill="#333333"/>
<path d="M33.2592 2.33484L33.2197 8.2875L32.2889 8.67L28.7634 4.17562L33.2592 2.33484ZM33.6976 0C33.5287 0 33.3526 0.031875 33.1801 0.103594L27.5128 2.42648C26.5389 2.82492 26.2262 4.17961 26.909 5.0482L31.7103 11.1682L35.1208 9.76969L35.1783 1.6575C35.1854 0.713203 34.4883 0 33.6976 0Z" fill="#333333"/>
<path d="M40.2133 28.9142L43.7388 33.4086L39.243 35.2494L39.2826 29.2967L40.2133 28.9142ZM40.7883 26.416L37.3779 27.8145L37.3204 35.9267C37.3132 36.871 38.0104 37.5842 38.801 37.5842C38.9699 37.5842 39.146 37.5523 39.3185 37.4806L44.9858 35.1577C45.9597 34.7593 46.2724 33.4046 45.5896 32.536L40.7883 26.416Z" fill="#333333"/>
<path d="M7.62578 32.0664L9.15312 38.1824L14.6695 39.8758L9.15312 41.5691L7.62578 47.6852L6.09844 41.5691L0.582031 39.8758L6.09844 38.1824L7.62578 32.0664Z" fill="#F6A400"/>
<path d="M20.7569 3.83301L21.6984 7.58629L25.0838 8.6302L21.6984 9.67012L20.7569 13.4234L19.8189 9.67012L16.4336 8.6302L19.8189 7.58629L20.7569 3.83301Z" fill="#F6A400"/>
<path d="M17.2035 41.9355L18.0265 45.2266L20.9949 46.1391L18.0265 47.0515L17.2035 50.3426L16.3805 47.0515L13.4121 46.1391L16.3805 45.2266L17.2035 41.9355Z" fill="#F6A400"/>
</g>
<defs>
<clipPath id="clip0_4513_26294">
<rect width="46" height="51" fill="white"/>
</clipPath>
</defs>
</svg>
