<svg width="55" height="52" viewBox="0 0 55 52" fill="none" xmlns="http://www.w3.org/2000/svg">
<g clip-path="url(#clip0_4513_26281)">
<path d="M47.8289 10.8998C47.8289 13.6541 45.7406 15.6001 43.1625 15.6001C40.5844 15.6001 38.4961 13.6582 38.4961 10.8998C38.4961 8.14133 43.1625 1.57227 43.1625 1.57227C43.1625 1.57227 47.8289 8.14539 47.8289 10.8998Z" fill="#A9D8D2"/>
<path d="M43.1629 16.4773C39.9746 16.4773 37.5684 14.0805 37.5684 10.9036C37.5684 7.96641 41.8996 1.78328 42.3938 1.08859L43.1629 0.00390625L43.932 1.08859C44.4262 1.78328 48.7574 7.96641 48.7574 10.9036C48.7574 14.0805 46.3512 16.4773 43.1629 16.4773ZM43.1629 3.18891C41.6848 5.42328 39.4246 9.20141 39.4246 10.8995C39.4246 13.077 41.0316 14.7223 43.1629 14.7223C45.2941 14.7223 46.9012 13.077 46.9012 10.8995C46.9012 9.19734 44.641 5.42328 43.1629 3.18891Z" fill="#333333"/>
<path d="M46.0457 27.0079C46.0457 28.71 44.7523 29.9125 43.1625 29.9125C41.5727 29.9125 40.2793 28.71 40.2793 27.0079C40.2793 25.3057 43.1625 21.2432 43.1625 21.2432C43.1625 21.2432 46.0457 25.3057 46.0457 27.0079Z" fill="#A9D8D2"/>
<path d="M43.1629 30.7852C40.9887 30.7852 39.3516 29.1602 39.3516 27.003C39.3516 25.1262 41.8867 21.4618 42.3938 20.7468L43.1629 19.6621L43.932 20.7468C44.4391 21.4618 46.9742 25.1262 46.9742 27.003C46.9742 29.1602 45.3371 30.7852 43.1629 30.7852ZM43.1629 22.8715C42.1918 24.3949 41.2035 26.223 41.2035 27.003C41.2035 28.1771 42.0285 29.0302 43.1629 29.0302C44.2973 29.0302 45.1223 28.1771 45.1223 27.003C45.1223 26.2271 44.134 24.3949 43.1629 22.8715Z" fill="#333333"/>
<path d="M26.8133 13.2354L28.0422 17.4238L32.468 18.5857L28.0422 19.7475L26.8133 23.936L25.5844 19.7475L21.1543 18.5857L25.5844 17.4238L26.8133 13.2354Z" fill="#F6A400"/>
<path d="M16.6035 2.31934L18.2492 7.93371L24.1875 9.48965L18.2492 11.0456L16.6035 16.66L14.9578 11.0456L9.01953 9.48965L14.9578 7.93371L16.6035 2.31934Z" fill="#F6A400"/>
<path d="M24.175 39.6869H35.2695C36.9324 39.6869 38.2816 38.3869 38.2816 36.7822C38.2816 35.1775 36.9324 33.8775 35.2695 33.8775H29.2625C24.8711 33.8775 22.4648 31.9072 17.2141 31.9072H8.80078V42.2829L20.7031 46.4997C26.5641 48.2791 32.8547 48.2507 38.6941 46.4104L51.7094 42.9329C52.9426 42.5429 53.7762 41.4338 53.7762 40.1825C53.7762 38.586 52.4356 37.29 50.7813 37.29L37.8906 38.2163" fill="#DBC7E2"/>
<path d="M29.5719 48.9122C26.4738 48.9122 23.3715 48.4532 20.3508 47.535L7.64062 43.0338V30.8057H17.2141C20.1187 30.8057 22.2457 31.3866 24.1234 31.8985C25.7734 32.3494 27.3289 32.776 29.2625 32.776H35.2695C37.5684 32.776 39.4418 34.5716 39.4418 36.7775C39.4418 36.8547 39.4418 36.9279 39.4375 37.001L50.7812 36.1885C53.0715 36.1885 54.9363 37.976 54.9363 40.1738C54.9363 41.9003 53.7891 43.4238 52.0746 43.96L39.0078 47.4538C35.9355 48.4207 32.7559 48.9082 29.5676 48.9082L29.5719 48.9122ZM9.96094 41.5185L21.1156 45.4672C26.723 47.1694 32.6957 47.141 38.3332 45.3657L51.4 41.8719C52.1133 41.6485 52.6246 40.9619 52.6246 40.1779C52.6246 39.1988 51.8211 38.4025 50.8242 38.3822L38.5437 39.2638C37.7789 40.186 36.5973 40.7791 35.2781 40.7791H24.1836V38.5894H35.2781C36.3008 38.5894 37.1344 37.7769 37.1344 36.7775C37.1344 35.7782 36.3008 34.9657 35.2781 34.9657H29.2711C27.0066 34.9657 25.2191 34.4782 23.4875 34.0028C21.6742 33.5072 19.8008 32.9954 17.2227 32.9954H9.96523V41.5144L9.96094 41.5185Z" fill="#333333"/>
<path d="M14.8844 48.531H5.30664C2.37617 48.531 0 46.3576 0 43.6804L0.721875 35.6651C0.9625 32.9635 3.09805 30.8145 6.02852 30.8145H16.573L14.8801 48.531H14.8844Z" fill="#C7DFB8"/>
<path d="M14.0809 32.9676L12.8004 46.3738H5.30664C3.66523 46.3738 2.32461 45.2079 2.27734 43.7576L2.99063 35.8438C3.11523 34.4585 4.11641 32.9676 6.02852 32.9676H14.0766M16.5688 30.8145H6.03281C3.10234 30.8145 0.966797 32.9635 0.726172 35.6651L0 43.6804C0 46.3576 2.37617 48.531 5.30664 48.531H14.8801L16.573 30.8145H16.5688Z" fill="#333333"/>
<path d="M9.02344 46.4057H12.7918L13.9906 32.9629H10.2352L9.02344 46.4057Z" fill="white"/>
</g>
<defs>
<clipPath id="clip0_4513_26281">
<rect width="55" height="52" fill="white"/>
</clipPath>
</defs>
</svg>
