<svg width="39" height="38" viewBox="0 0 39 38" fill="none" xmlns="http://www.w3.org/2000/svg">
<g clip-path="url(#clip0_4513_27260)">
<path d="M25.459 15.6338H34.56L38.2467 22.4619V31.4661H27.6436L25.459 15.6338Z" fill="white"/>
<path d="M12.7446 37.9407C15.2334 37.9407 17.2509 35.9749 17.2509 33.55C17.2509 31.125 15.2334 29.1592 12.7446 29.1592C10.2558 29.1592 8.23828 31.125 8.23828 33.55C8.23828 35.9749 10.2558 37.9407 12.7446 37.9407Z" fill="#DBC7E2"/>
<path d="M12.7446 30.7593C14.3229 30.7593 15.6087 32.0121 15.6087 33.55C15.6087 35.0878 14.3229 36.3406 12.7446 36.3406C11.1663 36.3406 9.88055 35.0878 9.88055 33.55C9.88055 32.0121 11.1663 30.7593 12.7446 30.7593ZM12.7446 29.1592C10.2553 29.1592 8.23828 31.1245 8.23828 33.55C8.23828 35.9754 10.2553 37.9407 12.7446 37.9407C15.2339 37.9407 17.2509 35.9754 17.2509 33.55C17.2509 31.1245 15.2339 29.1592 12.7446 29.1592Z" fill="#333333"/>
<path d="M27.645 37.9407C30.1338 37.9407 32.1513 35.9749 32.1513 33.55C32.1513 31.125 30.1338 29.1592 27.645 29.1592C25.1562 29.1592 23.1387 31.125 23.1387 33.55C23.1387 35.9749 25.1562 37.9407 27.645 37.9407Z" fill="#DBC7E2"/>
<path d="M27.645 30.7593C29.2233 30.7593 30.5091 32.0121 30.5091 33.55C30.5091 35.0878 29.2233 36.3406 27.645 36.3406C26.0667 36.3406 24.7809 35.0878 24.7809 33.55C24.7809 32.0121 26.0667 30.7593 27.645 30.7593ZM27.645 29.1592C25.1557 29.1592 23.1387 31.1245 23.1387 33.55C23.1387 35.9754 25.1557 37.9407 27.645 37.9407C30.1343 37.9407 32.1513 35.9754 32.1513 33.55C32.1513 31.1245 30.1343 29.1592 27.645 29.1592Z" fill="#333333"/>
<path d="M37.946 22.0518H27.6445V31.4657H37.946V22.0518Z" fill="#C7DFB8"/>
<path d="M37.9456 22.0518H34.5605V31.4657H37.9456V22.0518Z" fill="#A187BC"/>
<path d="M33.0182 16.2505C33.7464 16.2505 34.432 16.6929 34.8128 17.4054L36.7933 21.1163C36.9913 21.4904 37.098 21.9179 37.098 22.3513V30.643H27.2048V16.2505H33.0182ZM33.0182 14.5762H25.4863V32.3174H38.8164V22.3513C38.8164 21.6477 38.6458 20.956 38.3198 20.3445L36.3423 16.6335C35.6629 15.3629 34.3954 14.5762 33.0212 14.5762H33.0182Z" fill="#333333"/>
<path d="M7.18789 11.7861H26.566C27.608 11.7861 28.4551 12.6114 28.4551 13.6268V32.321H7.18789C6.14586 32.321 5.29883 31.4957 5.29883 30.4804V13.6297C5.29883 12.6144 6.14586 11.7891 7.18789 11.7891V11.7861Z" fill="#C7DFB8"/>
<path d="M26.5691 13.2972C26.7549 13.2972 26.9073 13.4457 26.9073 13.6268V30.8099H7.18789C7.00203 30.8099 6.84969 30.6614 6.84969 30.4804V13.6297C6.84969 13.4486 7.00203 13.3002 7.18789 13.3002H26.566M26.566 11.7891H7.18789C6.14586 11.7891 5.29883 12.6144 5.29883 13.6297V30.4804C5.29883 31.4957 6.14586 32.321 7.18789 32.321H28.4581V13.6268C28.4581 12.6114 27.6111 11.7861 26.5691 11.7861L26.566 11.7891Z" fill="#333333"/>
<path d="M31.8244 2.17578L32.8938 5.93719L36.7542 6.97922L32.8938 8.02422L31.8244 11.7856L30.7549 8.02422L26.8945 6.97922L30.7549 5.93719L31.8244 2.17578Z" fill="#F6A400"/>
<path d="M5.29914 0L6.44781 4.03453L10.5885 5.15375L6.44781 6.27297L5.29914 10.3075L4.15352 6.27297L0.00976562 5.15375L4.15352 4.03453L5.29914 0Z" fill="#F6A400"/>
<path d="M13.244 4.33984L13.9112 6.67922L16.3122 7.32938L13.9112 7.97656L13.244 10.3189L12.5798 7.97656L10.1758 7.32938L12.5798 6.67922L13.244 4.33984Z" fill="#F6A400"/>
<path d="M5.33836 19C5.32313 19.7125 4.86 20.3449 4.16836 20.5853L1.82227 21.1049L4.16836 21.6244C4.86 21.8649 5.32313 22.4972 5.33836 23.2097V18.9971V19Z" fill="#333333"/>
<path d="M5.33453 23.334C5.31016 24.5037 4.55148 25.5398 3.41805 25.9346L0.115234 26.7896L3.41805 27.6446C4.55148 28.0395 5.31016 29.0755 5.33453 30.2452V23.3399V23.334Z" fill="#333333"/>
<path d="M24.5488 19.9118C24.4056 19.7872 24.2167 19.7367 24.0156 19.7693L18.842 20.559L18.9456 17.8426L18.9395 17.8515C18.9395 17.7031 18.8968 17.5606 18.8024 17.4448C18.6561 17.2697 18.4246 17.1865 18.1839 17.2251L12.1602 18.1128C11.2157 18.2582 10.7129 18.7718 10.6672 19.6447C10.6398 20.1493 10.8013 20.4759 10.9932 20.6897C10.7647 20.7965 10.6154 21.0073 10.6002 21.2686L10.5789 21.6901C10.5789 21.7436 10.5789 21.794 10.585 21.8415L9.83848 21.9573L9.64043 21.987C9.30832 22.0375 9.07676 22.2928 9.06457 22.6193L8.99449 24.5728C8.9884 24.7687 9.06152 24.9439 9.20473 25.0686C9.32051 25.1695 9.46676 25.22 9.6252 25.22C9.66176 25.22 24.11 22.9904 24.11 22.9904C24.4421 22.94 24.6737 22.6847 24.6859 22.3581L24.756 20.4047C24.7621 20.2087 24.6889 20.0336 24.5457 19.9089L24.5488 19.9118Z" fill="#A187BC"/>
</g>
<defs>
<clipPath id="clip0_4513_27260">
<rect width="39" height="38" fill="white"/>
</clipPath>
</defs>
</svg>
