<svg width="31" height="34" viewBox="0 0 31 34" fill="none" xmlns="http://www.w3.org/2000/svg">
<g clip-path="url(#clip0_4513_27278)">
<path d="M4.11719 0L5.01086 3.53547L8.2368 4.51562L5.01086 5.49578L4.11719 9.03391L3.22352 5.49578L0 4.51562L3.22352 3.53547L4.11719 0Z" fill="#F6A400"/>
<path d="M23.5449 29.9176L26.4609 29.0304L27.2673 25.835L28.0762 29.0304L30.9922 29.9176L28.0762 30.8048L27.2673 34.0003L26.4609 30.8048L23.5449 29.9176Z" fill="#F6A400"/>
<path d="M26.6816 23.7844L28.3721 23.2691L28.8395 21.415L29.3094 23.2691L30.9998 23.7844L29.3094 24.2971L28.8395 26.1511L28.3721 24.2971L26.6816 23.7844Z" fill="#F6A400"/>
<path d="M20.0492 10.2741L19.4292 6.03211C19.3009 5.0732 18.5283 4.36133 17.6152 4.36133H13.3891C12.476 4.36133 11.7034 5.0732 11.5751 6.03211L10.9551 10.2741" fill="#C7DFB8"/>
<path d="M10.9515 10.992C10.9176 10.992 10.8813 10.9893 10.8473 10.9814C10.4913 10.9176 10.2491 10.5511 10.3048 10.1606L10.9248 5.91856C11.0968 4.62762 12.1552 3.64746 13.383 3.64746H17.6092C18.8371 3.64746 19.8955 4.62762 20.0698 5.92918L20.6898 10.1632C20.748 10.5537 20.5034 10.9203 20.1473 10.984C19.7938 11.0451 19.4571 10.7821 19.399 10.389L18.779 6.14699C18.6966 5.53605 18.1953 5.07918 17.6092 5.07918H13.383C12.797 5.07918 12.2956 5.5334 12.2157 6.13637L11.5933 10.389C11.5424 10.7423 11.2639 10.992 10.9491 10.992H10.9515Z" fill="#333333"/>
<path d="M17.0747 5.08105H13.9238V9.03355H17.0747V5.08105Z" fill="#A187BC"/>
<path d="M10.9512 23.7256L11.5712 27.9676C11.6995 28.9265 12.4721 29.6384 13.3852 29.6384H17.6113C18.5244 29.6384 19.297 28.9265 19.4253 27.9676L20.0453 23.7256" fill="#C7DFB8"/>
<path d="M17.6142 30.3528H13.388C12.1601 30.3528 11.1017 29.3726 10.9274 28.0711L10.3074 23.837C10.2493 23.4465 10.4939 23.08 10.8499 23.0162C11.2035 22.9578 11.5401 23.2181 11.5982 23.6112L12.2182 27.8532C12.3006 28.4642 12.8019 28.9211 13.3856 28.9211H17.6118C18.1954 28.9211 18.6992 28.4668 18.7791 27.8639L19.4015 23.6112C19.4596 23.2207 19.7963 22.9525 20.1499 23.0162C20.5059 23.08 20.7481 23.4465 20.6924 23.837L20.0724 28.079C19.9004 29.37 18.8421 30.3501 17.6142 30.3501V30.3528Z" fill="#333333"/>
<path d="M17.0747 24.9316H13.9238V28.8841H17.0747V24.9316Z" fill="#A187BC"/>
<path d="M15.4995 25.8296C19.9456 25.8296 23.5498 21.8766 23.5498 17.0003C23.5498 12.1239 19.9456 8.1709 15.4995 8.1709C11.0535 8.1709 7.44922 12.1239 7.44922 17.0003C7.44922 21.8766 11.0535 25.8296 15.4995 25.8296Z" fill="white"/>
<path d="M15.4995 9.60457C19.2171 9.60457 22.242 12.9222 22.242 16.9996C22.242 21.0769 19.2171 24.3946 15.4995 24.3946C11.782 24.3946 8.75703 21.0769 8.75703 16.9996C8.75703 12.9222 11.782 9.60457 15.4995 9.60457ZM15.4995 8.17285C11.053 8.17285 7.44922 12.1254 7.44922 17.0022C7.44922 21.8791 11.053 25.8316 15.4995 25.8316C19.9461 25.8316 23.5498 21.8791 23.5498 17.0022C23.5498 12.1254 19.9461 8.17285 15.4995 8.17285Z" fill="#333333"/>
<path d="M17.6147 22.3828C20.3243 21.1017 21.574 17.654 20.4059 14.6821C19.2378 11.7103 16.0943 10.3397 13.3847 11.6208C10.6751 12.9019 9.42542 16.3496 10.5935 19.3214C11.7616 22.2933 14.9051 23.6639 17.6147 22.3828Z" fill="#DBC7E2"/>
<path d="M16.9745 19.4066C16.8026 19.4066 16.6306 19.3323 16.5023 19.1862L15.0273 17.4941C14.9111 17.3613 14.8457 17.1834 14.8457 16.9974V12.766C14.8457 12.3702 15.1388 12.0488 15.4996 12.0488C15.8605 12.0488 16.1535 12.3702 16.1535 12.766V16.7105L17.4468 18.1927C17.6963 18.4796 17.6866 18.9312 17.4274 19.2048C17.3015 19.3376 17.1392 19.404 16.9745 19.404V19.4066Z" fill="#333333"/>
</g>
<defs>
<clipPath id="clip0_4513_27278">
<rect width="31" height="34" fill="white"/>
</clipPath>
</defs>
</svg>
