<svg width="24" height="24" viewBox="0 0 24 24" fill="none" xmlns="http://www.w3.org/2000/svg">
<path d="M23.7195 21.4805L17.7554 15.7373C19.3807 13.8231 20.1798 11.3807 19.9874 8.91507C19.7951 6.44948 18.6259 4.14941 16.7219 2.49061C14.8178 0.831816 12.3245 -0.058788 9.75763 0.00301409C7.19079 0.0648162 4.74681 1.0743 2.93121 2.82265C1.11562 4.571 0.0673091 6.92446 0.00313002 9.39624C-0.0610491 11.868 0.863809 14.269 2.5864 16.1025C4.309 17.9361 6.69754 19.0619 9.25796 19.2472C11.8184 19.4324 14.3548 18.6629 16.3426 17.0978L22.3067 22.841C22.4951 23.0163 22.7475 23.1133 23.0095 23.1111C23.2715 23.1089 23.5221 23.0077 23.7073 22.8293C23.8926 22.6509 23.9977 22.4096 24 22.1573C24.0022 21.905 23.9015 21.662 23.7195 21.4805ZM10.0238 17.3499C8.44282 17.3499 6.89737 16.8985 5.58286 16.0527C4.26835 15.2069 3.24381 14.0047 2.6388 12.5982C2.0338 11.1917 1.8755 9.64398 2.18393 8.15084C2.49236 6.65769 3.25366 5.28615 4.37156 4.20965C5.48946 3.13315 6.91376 2.40005 8.46433 2.10304C10.0149 1.80604 11.6221 1.95847 13.0827 2.54107C14.5433 3.12367 15.7917 4.11026 16.6701 5.37609C17.5484 6.64191 18.0172 8.13012 18.0172 9.65252C18.0148 11.6933 17.1719 13.6498 15.6734 15.0929C14.1748 16.5359 12.143 17.3476 10.0238 17.3499Z" fill="white"/>
</svg>
